<svg width="600" height="400" viewBox="0 0 600 400" xmlns="http://www.w3.org/2000/svg">
<rect x="0" y="0" width="600" height="400" opacity="1" fill="#FFFFFF" stroke="none"/>
<line opacity="0.1" stroke="#000000" stroke-width="1" x1="70" y1="349" x2="70" y2="10"/>
<line opacity="0.1" stroke="#000000" stroke-width="1" x1="77" y1="349" x2="77" y2="10"/>
<line opacity="0.1" stroke="#000000" stroke-width="1" x1="84" y1="349" x2="84" y2="10"/>
<line opacity="0.1" stroke="#000000" stroke-width="1" x1="92" y1="349" x2="92" y2="10"/>
<line opacity="0.1" stroke="#000000" stroke-width="1" x1="99" y1="349" x2="99" y2="10"/>
<line opacity="0.1" stroke="#000000" stroke-width="1" x1="107" y1="349" x2="107" y2="10"/>
<line opacity="0.1" stroke="#000000" stroke-width="1" x1="114" y1="349" x2="114" y2="10"/>
<line opacity="0.1" stroke="#000000" stroke-width="1" x1="121" y1="349" x2="121" y2="10"/>
<line opacity="0.1" stroke="#000000" stroke-width="1" x1="129" y1="349" x2="129" y2="10"/>
<line opacity="0.1" stroke="#000000" stroke-width="1" x1="136" y1="349" x2="136" y2="10"/>
<line opacity="0.1" stroke="#000000" stroke-width="1" x1="144" y1="349" x2="144" y2="10"/>
<line opacity="0.1" stroke="#000000" stroke-width="1" x1="151" y1="349" x2="151" y2="10"/>
<line opacity="0.1" stroke="#000000" stroke-width="1" x1="158" y1="349" x2="158" y2="10"/>
<line opacity="0.1" stroke="#000000" stroke-width="1" x1="166" y1="349" x2="166" y2="10"/>
<line opacity="0.1" stroke="#000000" stroke-width="1" x1="173" y1="349" x2="173" y2="10"/>
<line opacity="0.1" stroke="#000000" stroke-width="1" x1="181" y1="349" x2="181" y2="10"/>
<line opacity="0.1" stroke="#000000" stroke-width="1" x1="188" y1="349" x2="188" y2="10"/>
<line opacity="0.1" stroke="#000000" stroke-width="1" x1="196" y1="349" x2="196" y2="10"/>
<line opacity="0.1" stroke="#000000" stroke-width="1" x1="203" y1="349" x2="203" y2="10"/>
<line opacity="0.1" stroke="#000000" stroke-width="1" x1="210" y1="349" x2="210" y2="10"/>
<line opacity="0.1" stroke="#000000" stroke-width="1" x1="218" y1="349" x2="218" y2="10"/>
<line opacity="0.1" stroke="#000000" stroke-width="1" x1="225" y1="349" x2="225" y2="10"/>
<line opacity="0.1" stroke="#000000" stroke-width="1" x1="233" y1="349" x2="233" y2="10"/>
<line opacity="0.1" stroke="#000000" stroke-width="1" x1="240" y1="349" x2="240" y2="10"/>
<line opacity="0.1" stroke="#000000" stroke-width="1" x1="247" y1="349" x2="247" y2="10"/>
<line opacity="0.1" stroke="#000000" stroke-width="1" x1="255" y1="349" x2="255" y2="10"/>
<line opacity="0.1" stroke="#000000" stroke-width="1" x1="262" y1="349" x2="262" y2="10"/>
<line opacity="0.1" stroke="#000000" stroke-width="1" x1="270" y1="349" x2="270" y2="10"/>
<line opacity="0.1" stroke="#000000" stroke-width="1" x1="277" y1="349" x2="277" y2="10"/>
<line opacity="0.1" stroke="#000000" stroke-width="1" x1="285" y1="349" x2="285" y2="10"/>
<line opacity="0.1" stroke="#000000" stroke-width="1" x1="292" y1="349" x2="292" y2="10"/>
<line opacity="0.1" stroke="#000000" stroke-width="1" x1="299" y1="349" x2="299" y2="10"/>
<line opacity="0.1" stroke="#000000" stroke-width="1" x1="307" y1="349" x2="307" y2="10"/>
<line opacity="0.1" stroke="#000000" stroke-width="1" x1="314" y1="349" x2="314" y2="10"/>
<line opacity="0.1" stroke="#000000" stroke-width="1" x1="322" y1="349" x2="322" y2="10"/>
<line opacity="0.1" stroke="#000000" stroke-width="1" x1="329" y1="349" x2="329" y2="10"/>
<line opacity="0.1" stroke="#000000" stroke-width="1" x1="336" y1="349" x2="336" y2="10"/>
<line opacity="0.1" stroke="#000000" stroke-width="1" x1="344" y1="349" x2="344" y2="10"/>
<line opacity="0.1" stroke="#000000" stroke-width="1" x1="351" y1="349" x2="351" y2="10"/>
<line opacity="0.1" stroke="#000000" stroke-width="1" x1="359" y1="349" x2="359" y2="10"/>
<line opacity="0.1" stroke="#000000" stroke-width="1" x1="366" y1="349" x2="366" y2="10"/>
<line opacity="0.1" stroke="#000000" stroke-width="1" x1="373" y1="349" x2="373" y2="10"/>
<line opacity="0.1" stroke="#000000" stroke-width="1" x1="381" y1="349" x2="381" y2="10"/>
<line opacity="0.1" stroke="#000000" stroke-width="1" x1="388" y1="349" x2="388" y2="10"/>
<line opacity="0.1" stroke="#000000" stroke-width="1" x1="396" y1="349" x2="396" y2="10"/>
<line opacity="0.1" stroke="#000000" stroke-width="1" x1="403" y1="349" x2="403" y2="10"/>
<line opacity="0.1" stroke="#000000" stroke-width="1" x1="411" y1="349" x2="411" y2="10"/>
<line opacity="0.1" stroke="#000000" stroke-width="1" x1="418" y1="349" x2="418" y2="10"/>
<line opacity="0.1" stroke="#000000" stroke-width="1" x1="425" y1="349" x2="425" y2="10"/>
<line opacity="0.1" stroke="#000000" stroke-width="1" x1="433" y1="349" x2="433" y2="10"/>
<line opacity="0.1" stroke="#000000" stroke-width="1" x1="440" y1="349" x2="440" y2="10"/>
<line opacity="0.1" stroke="#000000" stroke-width="1" x1="448" y1="349" x2="448" y2="10"/>
<line opacity="0.1" stroke="#000000" stroke-width="1" x1="455" y1="349" x2="455" y2="10"/>
<line opacity="0.1" stroke="#000000" stroke-width="1" x1="462" y1="349" x2="462" y2="10"/>
<line opacity="0.1" stroke="#000000" stroke-width="1" x1="470" y1="349" x2="470" y2="10"/>
<line opacity="0.1" stroke="#000000" stroke-width="1" x1="477" y1="349" x2="477" y2="10"/>
<line opacity="0.1" stroke="#000000" stroke-width="1" x1="485" y1="349" x2="485" y2="10"/>
<line opacity="0.1" stroke="#000000" stroke-width="1" x1="492" y1="349" x2="492" y2="10"/>
<line opacity="0.1" stroke="#000000" stroke-width="1" x1="500" y1="349" x2="500" y2="10"/>
<line opacity="0.1" stroke="#000000" stroke-width="1" x1="507" y1="349" x2="507" y2="10"/>
<line opacity="0.1" stroke="#000000" stroke-width="1" x1="514" y1="349" x2="514" y2="10"/>
<line opacity="0.1" stroke="#000000" stroke-width="1" x1="522" y1="349" x2="522" y2="10"/>
<line opacity="0.1" stroke="#000000" stroke-width="1" x1="529" y1="349" x2="529" y2="10"/>
<line opacity="0.1" stroke="#000000" stroke-width="1" x1="537" y1="349" x2="537" y2="10"/>
<line opacity="0.1" stroke="#000000" stroke-width="1" x1="544" y1="349" x2="544" y2="10"/>
<line opacity="0.1" stroke="#000000" stroke-width="1" x1="551" y1="349" x2="551" y2="10"/>
<line opacity="0.1" stroke="#000000" stroke-width="1" x1="559" y1="349" x2="559" y2="10"/>
<line opacity="0.1" stroke="#000000" stroke-width="1" x1="566" y1="349" x2="566" y2="10"/>
<line opacity="0.1" stroke="#000000" stroke-width="1" x1="574" y1="349" x2="574" y2="10"/>
<line opacity="0.1" stroke="#000000" stroke-width="1" x1="581" y1="349" x2="581" y2="10"/>
<line opacity="0.1" stroke="#000000" stroke-width="1" x1="70" y1="349" x2="589" y2="349"/>
<line opacity="0.1" stroke="#000000" stroke-width="1" x1="70" y1="346" x2="589" y2="346"/>
<line opacity="0.1" stroke="#000000" stroke-width="1" x1="70" y1="343" x2="589" y2="343"/>
<line opacity="0.1" stroke="#000000" stroke-width="1" x1="70" y1="339" x2="589" y2="339"/>
<line opacity="0.1" stroke="#000000" stroke-width="1" x1="70" y1="336" x2="589" y2="336"/>
<line opacity="0.1" stroke="#000000" stroke-width="1" x1="70" y1="333" x2="589" y2="333"/>
<line opacity="0.1" stroke="#000000" stroke-width="1" x1="70" y1="329" x2="589" y2="329"/>
<line opacity="0.1" stroke="#000000" stroke-width="1" x1="70" y1="326" x2="589" y2="326"/>
<line opacity="0.1" stroke="#000000" stroke-width="1" x1="70" y1="322" x2="589" y2="322"/>
<line opacity="0.1" stroke="#000000" stroke-width="1" x1="70" y1="319" x2="589" y2="319"/>
<line opacity="0.1" stroke="#000000" stroke-width="1" x1="70" y1="316" x2="589" y2="316"/>
<line opacity="0.1" stroke="#000000" stroke-width="1" x1="70" y1="312" x2="589" y2="312"/>
<line opacity="0.1" stroke="#000000" stroke-width="1" x1="70" y1="309" x2="589" y2="309"/>
<line opacity="0.1" stroke="#000000" stroke-width="1" x1="70" y1="305" x2="589" y2="305"/>
<line opacity="0.1" stroke="#000000" stroke-width="1" x1="70" y1="302" x2="589" y2="302"/>
<line opacity="0.1" stroke="#000000" stroke-width="1" x1="70" y1="299" x2="589" y2="299"/>
<line opacity="0.1" stroke="#000000" stroke-width="1" x1="70" y1="295" x2="589" y2="295"/>
<line opacity="0.1" stroke="#000000" stroke-width="1" x1="70" y1="292" x2="589" y2="292"/>
<line opacity="0.1" stroke="#000000" stroke-width="1" x1="70" y1="288" x2="589" y2="288"/>
<line opacity="0.1" stroke="#000000" stroke-width="1" x1="70" y1="285" x2="589" y2="285"/>
<line opacity="0.1" stroke="#000000" stroke-width="1" x1="70" y1="282" x2="589" y2="282"/>
<line opacity="0.1" stroke="#000000" stroke-width="1" x1="70" y1="278" x2="589" y2="278"/>
<line opacity="0.1" stroke="#000000" stroke-width="1" x1="70" y1="275" x2="589" y2="275"/>
<line opacity="0.1" stroke="#000000" stroke-width="1" x1="70" y1="272" x2="589" y2="272"/>
<line opacity="0.1" stroke="#000000" stroke-width="1" x1="70" y1="268" x2="589" y2="268"/>
<line opacity="0.1" stroke="#000000" stroke-width="1" x1="70" y1="265" x2="589" y2="265"/>
<line opacity="0.1" stroke="#000000" stroke-width="1" x1="70" y1="261" x2="589" y2="261"/>
<line opacity="0.1" stroke="#000000" stroke-width="1" x1="70" y1="258" x2="589" y2="258"/>
<line opacity="0.1" stroke="#000000" stroke-width="1" x1="70" y1="255" x2="589" y2="255"/>
<line opacity="0.1" stroke="#000000" stroke-width="1" x1="70" y1="251" x2="589" y2="251"/>
<line opacity="0.1" stroke="#000000" stroke-width="1" x1="70" y1="248" x2="589" y2="248"/>
<line opacity="0.1" stroke="#000000" stroke-width="1" x1="70" y1="244" x2="589" y2="244"/>
<line opacity="0.1" stroke="#000000" stroke-width="1" x1="70" y1="241" x2="589" y2="241"/>
<line opacity="0.1" stroke="#000000" stroke-width="1" x1="70" y1="238" x2="589" y2="238"/>
<line opacity="0.1" stroke="#000000" stroke-width="1" x1="70" y1="234" x2="589" y2="234"/>
<line opacity="0.1" stroke="#000000" stroke-width="1" x1="70" y1="231" x2="589" y2="231"/>
<line opacity="0.1" stroke="#000000" stroke-width="1" x1="70" y1="227" x2="589" y2="227"/>
<line opacity="0.1" stroke="#000000" stroke-width="1" x1="70" y1="224" x2="589" y2="224"/>
<line opacity="0.1" stroke="#000000" stroke-width="1" x1="70" y1="221" x2="589" y2="221"/>
<line opacity="0.1" stroke="#000000" stroke-width="1" x1="70" y1="217" x2="589" y2="217"/>
<line opacity="0.1" stroke="#000000" stroke-width="1" x1="70" y1="214" x2="589" y2="214"/>
<line opacity="0.1" stroke="#000000" stroke-width="1" x1="70" y1="211" x2="589" y2="211"/>
<line opacity="0.1" stroke="#000000" stroke-width="1" x1="70" y1="207" x2="589" y2="207"/>
<line opacity="0.1" stroke="#000000" stroke-width="1" x1="70" y1="204" x2="589" y2="204"/>
<line opacity="0.1" stroke="#000000" stroke-width="1" x1="70" y1="200" x2="589" y2="200"/>
<line opacity="0.1" stroke="#000000" stroke-width="1" x1="70" y1="197" x2="589" y2="197"/>
<line opacity="0.1" stroke="#000000" stroke-width="1" x1="70" y1="194" x2="589" y2="194"/>
<line opacity="0.1" stroke="#000000" stroke-width="1" x1="70" y1="190" x2="589" y2="190"/>
<line opacity="0.1" stroke="#000000" stroke-width="1" x1="70" y1="187" x2="589" y2="187"/>
<line opacity="0.1" stroke="#000000" stroke-width="1" x1="70" y1="183" x2="589" y2="183"/>
<line opacity="0.1" stroke="#000000" stroke-width="1" x1="70" y1="180" x2="589" y2="180"/>
<line opacity="0.1" stroke="#000000" stroke-width="1" x1="70" y1="177" x2="589" y2="177"/>
<line opacity="0.1" stroke="#000000" stroke-width="1" x1="70" y1="173" x2="589" y2="173"/>
<line opacity="0.1" stroke="#000000" stroke-width="1" x1="70" y1="170" x2="589" y2="170"/>
<line opacity="0.1" stroke="#000000" stroke-width="1" x1="70" y1="166" x2="589" y2="166"/>
<line opacity="0.1" stroke="#000000" stroke-width="1" x1="70" y1="163" x2="589" y2="163"/>
<line opacity="0.1" stroke="#000000" stroke-width="1" x1="70" y1="160" x2="589" y2="160"/>
<line opacity="0.1" stroke="#000000" stroke-width="1" x1="70" y1="156" x2="589" y2="156"/>
<line opacity="0.1" stroke="#000000" stroke-width="1" x1="70" y1="153" x2="589" y2="153"/>
<line opacity="0.1" stroke="#000000" stroke-width="1" x1="70" y1="149" x2="589" y2="149"/>
<line opacity="0.1" stroke="#000000" stroke-width="1" x1="70" y1="146" x2="589" y2="146"/>
<line opacity="0.1" stroke="#000000" stroke-width="1" x1="70" y1="143" x2="589" y2="143"/>
<line opacity="0.1" stroke="#000000" stroke-width="1" x1="70" y1="139" x2="589" y2="139"/>
<line opacity="0.1" stroke="#000000" stroke-width="1" x1="70" y1="136" x2="589" y2="136"/>
<line opacity="0.1" stroke="#000000" stroke-width="1" x1="70" y1="133" x2="589" y2="133"/>
<line opacity="0.1" stroke="#000000" stroke-width="1" x1="70" y1="129" x2="589" y2="129"/>
<line opacity="0.1" stroke="#000000" stroke-width="1" x1="70" y1="126" x2="589" y2="126"/>
<line opacity="0.1" stroke="#000000" stroke-width="1" x1="70" y1="122" x2="589" y2="122"/>
<line opacity="0.1" stroke="#000000" stroke-width="1" x1="70" y1="119" x2="589" y2="119"/>
<line opacity="0.1" stroke="#000000" stroke-width="1" x1="70" y1="116" x2="589" y2="116"/>
<line opacity="0.1" stroke="#000000" stroke-width="1" x1="70" y1="112" x2="589" y2="112"/>
<line opacity="0.1" stroke="#000000" stroke-width="1" x1="70" y1="109" x2="589" y2="109"/>
<line opacity="0.1" stroke="#000000" stroke-width="1" x1="70" y1="105" x2="589" y2="105"/>
<line opacity="0.1" stroke="#000000" stroke-width="1" x1="70" y1="102" x2="589" y2="102"/>
<line opacity="0.1" stroke="#000000" stroke-width="1" x1="70" y1="99" x2="589" y2="99"/>
<line opacity="0.1" stroke="#000000" stroke-width="1" x1="70" y1="95" x2="589" y2="95"/>
<line opacity="0.1" stroke="#000000" stroke-width="1" x1="70" y1="92" x2="589" y2="92"/>
<line opacity="0.1" stroke="#000000" stroke-width="1" x1="70" y1="88" x2="589" y2="88"/>
<line opacity="0.1" stroke="#000000" stroke-width="1" x1="70" y1="85" x2="589" y2="85"/>
<line opacity="0.1" stroke="#000000" stroke-width="1" x1="70" y1="82" x2="589" y2="82"/>
<line opacity="0.1" stroke="#000000" stroke-width="1" x1="70" y1="78" x2="589" y2="78"/>
<line opacity="0.1" stroke="#000000" stroke-width="1" x1="70" y1="75" x2="589" y2="75"/>
<line opacity="0.1" stroke="#000000" stroke-width="1" x1="70" y1="72" x2="589" y2="72"/>
<line opacity="0.1" stroke="#000000" stroke-width="1" x1="70" y1="68" x2="589" y2="68"/>
<line opacity="0.1" stroke="#000000" stroke-width="1" x1="70" y1="65" x2="589" y2="65"/>
<line opacity="0.1" stroke="#000000" stroke-width="1" x1="70" y1="61" x2="589" y2="61"/>
<line opacity="0.1" stroke="#000000" stroke-width="1" x1="70" y1="58" x2="589" y2="58"/>
<line opacity="0.1" stroke="#000000" stroke-width="1" x1="70" y1="55" x2="589" y2="55"/>
<line opacity="0.1" stroke="#000000" stroke-width="1" x1="70" y1="51" x2="589" y2="51"/>
<line opacity="0.1" stroke="#000000" stroke-width="1" x1="70" y1="48" x2="589" y2="48"/>
<line opacity="0.1" stroke="#000000" stroke-width="1" x1="70" y1="44" x2="589" y2="44"/>
<line opacity="0.1" stroke="#000000" stroke-width="1" x1="70" y1="41" x2="589" y2="41"/>
<line opacity="0.1" stroke="#000000" stroke-width="1" x1="70" y1="38" x2="589" y2="38"/>
<line opacity="0.1" stroke="#000000" stroke-width="1" x1="70" y1="34" x2="589" y2="34"/>
<line opacity="0.1" stroke="#000000" stroke-width="1" x1="70" y1="31" x2="589" y2="31"/>
<line opacity="0.1" stroke="#000000" stroke-width="1" x1="70" y1="27" x2="589" y2="27"/>
<line opacity="0.1" stroke="#000000" stroke-width="1" x1="70" y1="24" x2="589" y2="24"/>
<line opacity="0.1" stroke="#000000" stroke-width="1" x1="70" y1="21" x2="589" y2="21"/>
<line opacity="0.1" stroke="#000000" stroke-width="1" x1="70" y1="17" x2="589" y2="17"/>
<line opacity="0.1" stroke="#000000" stroke-width="1" x1="70" y1="14" x2="589" y2="14"/>
<line opacity="0.1" stroke="#000000" stroke-width="1" x1="70" y1="10" x2="589" y2="10"/>
<text x="10" y="180" dy="0.76em" text-anchor="middle" font-family="sans-serif" font-size="14.516129032258064" opacity="1" fill="#000000" transform="rotate(270, 10, 180)">
Specific losses in W/kg
</text>
<text x="330" y="390" dy="-0.5ex" text-anchor="middle" font-family="sans-serif" font-size="14.516129032258064" opacity="1" fill="#000000">
Flux density in T
</text>
<line opacity="0.2" stroke="#000000" stroke-width="1" x1="70" y1="349" x2="70" y2="10"/>
<line opacity="0.2" stroke="#000000" stroke-width="1" x1="144" y1="349" x2="144" y2="10"/>
<line opacity="0.2" stroke="#000000" stroke-width="1" x1="218" y1="349" x2="218" y2="10"/>
<line opacity="0.2" stroke="#000000" stroke-width="1" x1="292" y1="349" x2="292" y2="10"/>
<line opacity="0.2" stroke="#000000" stroke-width="1" x1="366" y1="349" x2="366" y2="10"/>
<line opacity="0.2" stroke="#000000" stroke-width="1" x1="440" y1="349" x2="440" y2="10"/>
<line opacity="0.2" stroke="#000000" stroke-width="1" x1="514" y1="349" x2="514" y2="10"/>
<line opacity="0.2" stroke="#000000" stroke-width="1" x1="589" y1="349" x2="589" y2="10"/>
<line opacity="0.2" stroke="#000000" stroke-width="1" x1="70" y1="349" x2="589" y2="349"/>
<line opacity="0.2" stroke="#000000" stroke-width="1" x1="70" y1="316" x2="589" y2="316"/>
<line opacity="0.2" stroke="#000000" stroke-width="1" x1="70" y1="282" x2="589" y2="282"/>
<line opacity="0.2" stroke="#000000" stroke-width="1" x1="70" y1="248" x2="589" y2="248"/>
<line opacity="0.2" stroke="#000000" stroke-width="1" x1="70" y1="214" x2="589" y2="214"/>
<line opacity="0.2" stroke="#000000" stroke-width="1" x1="70" y1="180" x2="589" y2="180"/>
<line opacity="0.2" stroke="#000000" stroke-width="1" x1="70" y1="146" x2="589" y2="146"/>
<line opacity="0.2" stroke="#000000" stroke-width="1" x1="70" y1="112" x2="589" y2="112"/>
<line opacity="0.2" stroke="#000000" stroke-width="1" x1="70" y1="78" x2="589" y2="78"/>
<line opacity="0.2" stroke="#000000" stroke-width="1" x1="70" y1="44" x2="589" y2="44"/>
<line opacity="0.2" stroke="#000000" stroke-width="1" x1="70" y1="10" x2="589" y2="10"/>
<polyline fill="none" opacity="1" stroke="#000000" stroke-width="1" points="69,10 69,349 "/>
<text x="60" y="349" dy="0.5ex" text-anchor="end" font-family="sans-serif" font-size="12.903225806451614" opacity="1" fill="#000000">
0.0
</text>
<polyline fill="none" opacity="1" stroke="#000000" stroke-width="1" points="64,349 69,349 "/>
<text x="60" y="316" dy="0.5ex" text-anchor="end" font-family="sans-serif" font-size="12.903225806451614" opacity="1" fill="#000000">
2.0
</text>
<polyline fill="none" opacity="1" stroke="#000000" stroke-width="1" points="64,316 69,316 "/>
<text x="60" y="282" dy="0.5ex" text-anchor="end" font-family="sans-serif" font-size="12.903225806451614" opacity="1" fill="#000000">
4.0
</text>
<polyline fill="none" opacity="1" stroke="#000000" stroke-width="1" points="64,282 69,282 "/>
<text x="60" y="248" dy="0.5ex" text-anchor="end" font-family="sans-serif" font-size="12.903225806451614" opacity="1" fill="#000000">
6.0
</text>
<polyline fill="none" opacity="1" stroke="#000000" stroke-width="1" points="64,248 69,248 "/>
<text x="60" y="214" dy="0.5ex" text-anchor="end" font-family="sans-serif" font-size="12.903225806451614" opacity="1" fill="#000000">
8.0
</text>
<polyline fill="none" opacity="1" stroke="#000000" stroke-width="1" points="64,214 69,214 "/>
<text x="60" y="180" dy="0.5ex" text-anchor="end" font-family="sans-serif" font-size="12.903225806451614" opacity="1" fill="#000000">
10.0
</text>
<polyline fill="none" opacity="1" stroke="#000000" stroke-width="1" points="64,180 69,180 "/>
<text x="60" y="146" dy="0.5ex" text-anchor="end" font-family="sans-serif" font-size="12.903225806451614" opacity="1" fill="#000000">
12.0
</text>
<polyline fill="none" opacity="1" stroke="#000000" stroke-width="1" points="64,146 69,146 "/>
<text x="60" y="112" dy="0.5ex" text-anchor="end" font-family="sans-serif" font-size="12.903225806451614" opacity="1" fill="#000000">
14.0
</text>
<polyline fill="none" opacity="1" stroke="#000000" stroke-width="1" points="64,112 69,112 "/>
<text x="60" y="78" dy="0.5ex" text-anchor="end" font-family="sans-serif" font-size="12.903225806451614" opacity="1" fill="#000000">
16.0
</text>
<polyline fill="none" opacity="1" stroke="#000000" stroke-width="1" points="64,78 69,78 "/>
<text x="60" y="44" dy="0.5ex" text-anchor="end" font-family="sans-serif" font-size="12.903225806451614" opacity="1" fill="#000000">
18.0
</text>
<polyline fill="none" opacity="1" stroke="#000000" stroke-width="1" points="64,44 69,44 "/>
<text x="60" y="10" dy="0.5ex" text-anchor="end" font-family="sans-serif" font-size="12.903225806451614" opacity="1" fill="#000000">
20.0
</text>
<polyline fill="none" opacity="1" stroke="#000000" stroke-width="1" points="64,10 69,10 "/>
<polyline fill="none" opacity="1" stroke="#000000" stroke-width="1" points="70,350 589,350 "/>
<text x="70" y="360" dy="0.76em" text-anchor="middle" font-family="sans-serif" font-size="12.903225806451614" opacity="1" fill="#000000">
0.4
</text>
<polyline fill="none" opacity="1" stroke="#000000" stroke-width="1" points="70,350 70,355 "/>
<text x="144" y="360" dy="0.76em" text-anchor="middle" font-family="sans-serif" font-size="12.903225806451614" opacity="1" fill="#000000">
0.6
</text>
<polyline fill="none" opacity="1" stroke="#000000" stroke-width="1" points="144,350 144,355 "/>
<text x="218" y="360" dy="0.76em" text-anchor="middle" font-family="sans-serif" font-size="12.903225806451614" opacity="1" fill="#000000">
0.8
</text>
<polyline fill="none" opacity="1" stroke="#000000" stroke-width="1" points="218,350 218,355 "/>
<text x="292" y="360" dy="0.76em" text-anchor="middle" font-family="sans-serif" font-size="12.903225806451614" opacity="1" fill="#000000">
1.0
</text>
<polyline fill="none" opacity="1" stroke="#000000" stroke-width="1" points="292,350 292,355 "/>
<text x="366" y="360" dy="0.76em" text-anchor="middle" font-family="sans-serif" font-size="12.903225806451614" opacity="1" fill="#000000">
1.2
</text>
<polyline fill="none" opacity="1" stroke="#000000" stroke-width="1" points="366,350 366,355 "/>
<text x="440" y="360" dy="0.76em" text-anchor="middle" font-family="sans-serif" font-size="12.903225806451614" opacity="1" fill="#000000">
1.4
</text>
<polyline fill="none" opacity="1" stroke="#000000" stroke-width="1" points="440,350 440,355 "/>
<text x="514" y="360" dy="0.76em" text-anchor="middle" font-family="sans-serif" font-size="12.903225806451614" opacity="1" fill="#000000">
1.6
</text>
<polyline fill="none" opacity="1" stroke="#000000" stroke-width="1" points="514,350 514,355 "/>
<text x="589" y="360" dy="0.76em" text-anchor="middle" font-family="sans-serif" font-size="12.903225806451614" opacity="1" fill="#000000">
1.8
</text>
<polyline fill="none" opacity="1" stroke="#000000" stroke-width="1" points="589,350 589,355 "/>
<line opacity="1" stroke="#0000FF" stroke-width="1" x1="102" y1="338" x2="112" y2="348"/>
<line opacity="1" stroke="#0000FF" stroke-width="1" x1="102" y1="348" x2="112" y2="338"/>
<line opacity="1" stroke="#0000FF" stroke-width="1" x1="139" y1="335" x2="149" y2="345"/>
<line opacity="1" stroke="#0000FF" stroke-width="1" x1="139" y1="345" x2="149" y2="335"/>
<line opacity="1" stroke="#0000FF" stroke-width="1" x1="176" y1="333" x2="186" y2="343"/>
<line opacity="1" stroke="#0000FF" stroke-width="1" x1="176" y1="343" x2="186" y2="333"/>
<line opacity="1" stroke="#0000FF" stroke-width="1" x1="213" y1="330" x2="223" y2="340"/>
<line opacity="1" stroke="#0000FF" stroke-width="1" x1="213" y1="340" x2="223" y2="330"/>
<line opacity="1" stroke="#0000FF" stroke-width="1" x1="250" y1="327" x2="260" y2="337"/>
<line opacity="1" stroke="#0000FF" stroke-width="1" x1="250" y1="337" x2="260" y2="327"/>
<line opacity="1" stroke="#0000FF" stroke-width="1" x1="287" y1="324" x2="297" y2="334"/>
<line opacity="1" stroke="#0000FF" stroke-width="1" x1="287" y1="334" x2="297" y2="324"/>
<line opacity="1" stroke="#0000FF" stroke-width="1" x1="324" y1="320" x2="334" y2="330"/>
<line opacity="1" stroke="#0000FF" stroke-width="1" x1="324" y1="330" x2="334" y2="320"/>
<line opacity="1" stroke="#0000FF" stroke-width="1" x1="361" y1="316" x2="371" y2="326"/>
<line opacity="1" stroke="#0000FF" stroke-width="1" x1="361" y1="326" x2="371" y2="316"/>
<line opacity="1" stroke="#0000FF" stroke-width="1" x1="398" y1="311" x2="408" y2="321"/>
<line opacity="1" stroke="#0000FF" stroke-width="1" x1="398" y1="321" x2="408" y2="311"/>
<line opacity="1" stroke="#0000FF" stroke-width="1" x1="435" y1="304" x2="445" y2="314"/>
<line opacity="1" stroke="#0000FF" stroke-width="1" x1="435" y1="314" x2="445" y2="304"/>
<line opacity="1" stroke="#0000FF" stroke-width="1" x1="472" y1="297" x2="482" y2="307"/>
<line opacity="1" stroke="#0000FF" stroke-width="1" x1="472" y1="307" x2="482" y2="297"/>
<line opacity="1" stroke="#0000FF" stroke-width="1" x1="509" y1="292" x2="519" y2="302"/>
<line opacity="1" stroke="#0000FF" stroke-width="1" x1="509" y1="302" x2="519" y2="292"/>
<line opacity="1" stroke="#0000FF" stroke-width="1" x1="546" y1="287" x2="556" y2="297"/>
<line opacity="1" stroke="#0000FF" stroke-width="1" x1="546" y1="297" x2="556" y2="287"/>
<polyline fill="none" opacity="1" stroke="#0000FF" stroke-width="1" points="70,346 73,346 77,346 81,346 84,346 88,345 92,345 95,345 99,345 103,345 107,344 110,344 114,344 118,344 121,344 125,343 129,343 133,343 136,343 140,342 144,342 147,342 151,342 155,341 158,341 162,341 166,341 170,340 173,340 177,340 181,340 184,339 188,339 192,339 196,338 199,338 203,338 207,337 210,337 214,337 218,336 221,336 225,336 229,335 233,335 236,335 240,334 244,334 247,334 251,333 255,333 259,333 262,332 266,332 270,331 273,331 277,331 281,330 285,330 288,330 292,329 296,329 299,328 303,328 307,327 310,327 314,327 318,326 322,326 325,325 329,325 333,324 336,324 340,323 344,323 348,323 351,322 355,322 359,321 362,321 366,320 370,320 373,319 377,319 381,318 385,318 388,317 392,317 396,316 399,316 403,315 407,315 411,314 414,313 418,313 422,312 425,312 429,311 433,311 437,310 440,310 444,309 448,308 451,308 455,307 459,307 462,306 466,305 470,305 474,304 477,304 481,303 485,302 488,302 492,301 496,301 500,300 503,299 507,299 511,298 514,297 518,297 522,296 525,295 529,295 533,294 537,293 540,293 544,292 548,291 551,291 555,290 559,289 563,288 566,288 570,287 574,286 577,286 581,285 585,284 "/>
<line opacity="1" stroke="#2E7D32" stroke-width="1" x1="102" y1="330" x2="112" y2="340"/>
<line opacity="1" stroke="#2E7D32" stroke-width="1" x1="102" y1="340" x2="112" y2="330"/>
<line opacity="1" stroke="#2E7D32" stroke-width="1" x1="139" y1="325" x2="149" y2="335"/>
<line opacity="1" stroke="#2E7D32" stroke-width="1" x1="139" y1="335" x2="149" y2="325"/>
<line opacity="1" stroke="#2E7D32" stroke-width="1" x1="176" y1="319" x2="186" y2="329"/>
<line opacity="1" stroke="#2E7D32" stroke-width="1" x1="176" y1="329" x2="186" y2="319"/>
<line opacity="1" stroke="#2E7D32" stroke-width="1" x1="213" y1="313" x2="223" y2="323"/>
<line opacity="1" stroke="#2E7D32" stroke-width="1" x1="213" y1="323" x2="223" y2="313"/>
<line opacity="1" stroke="#2E7D32" stroke-width="1" x1="250" y1="305" x2="260" y2="315"/>
<line opacity="1" stroke="#2E7D32" stroke-width="1" x1="250" y1="315" x2="260" y2="305"/>
<line opacity="1" stroke="#2E7D32" stroke-width="1" x1="287" y1="297" x2="297" y2="307"/>
<line opacity="1" stroke="#2E7D32" stroke-width="1" x1="287" y1="307" x2="297" y2="297"/>
<line opacity="1" stroke="#2E7D32" stroke-width="1" x1="324" y1="288" x2="334" y2="298"/>
<line opacity="1" stroke="#2E7D32" stroke-width="1" x1="324" y1="298" x2="334" y2="288"/>
<line opacity="1" stroke="#2E7D32" stroke-width="1" x1="361" y1="277" x2="371" y2="287"/>
<line opacity="1" stroke="#2E7D32" stroke-width="1" x1="361" y1="287" x2="371" y2="277"/>
<line opacity="1" stroke="#2E7D32" stroke-width="1" x1="398" y1="265" x2="408" y2="275"/>
<line opacity="1" stroke="#2E7D32" stroke-width="1" x1="398" y1="275" x2="408" y2="265"/>
<line opacity="1" stroke="#2E7D32" stroke-width="1" x1="435" y1="250" x2="445" y2="260"/>
<line opacity="1" stroke="#2E7D32" stroke-width="1" x1="435" y1="260" x2="445" y2="250"/>
<line opacity="1" stroke="#2E7D32" stroke-width="1" x1="472" y1="231" x2="482" y2="241"/>
<line opacity="1" stroke="#2E7D32" stroke-width="1" x1="472" y1="241" x2="482" y2="231"/>
<line opacity="1" stroke="#2E7D32" stroke-width="1" x1="509" y1="215" x2="519" y2="225"/>
<line opacity="1" stroke="#2E7D32" stroke-width="1" x1="509" y1="225" x2="519" y2="215"/>
<polyline fill="none" opacity="1" stroke="#2E7D32" stroke-width="1" points="70,338 73,337 77,337 81,336 84,335 88,335 92,334 95,333 99,333 103,332 107,331 110,331 114,330 118,329 121,328 125,328 129,327 133,326 136,325 140,324 144,323 147,322 151,322 155,321 158,320 162,319 166,318 170,317 173,316 177,315 181,314 184,313 188,312 192,311 196,310 199,309 203,308 207,306 210,305 214,304 218,303 221,302 225,301 229,300 233,298 236,297 240,296 244,295 247,293 251,292 255,291 259,289 262,288 266,287 270,285 273,284 277,283 281,281 285,280 288,278 292,277 296,275 299,274 303,273 307,271 310,269 314,268 318,266 322,265 325,263 329,262 333,260 336,258 340,257 344,255 348,254 351,252 355,250 359,248 362,247 366,245 370,243 373,241 377,240 381,238 385,236 388,234 392,232 396,231 399,229 403,227 407,225 411,223 414,221 418,219 422,217 425,215 429,213 433,211 437,209 440,207 444,205 448,203 451,201 455,199 459,197 462,195 466,193 470,191 474,188 477,186 481,184 485,182 488,180 492,177 496,175 500,173 503,171 507,168 511,166 514,164 518,161 522,159 525,157 529,154 533,152 537,150 540,147 544,145 548,142 551,140 555,137 559,135 563,132 566,130 570,127 574,125 577,122 581,120 585,117 "/>
<line opacity="1" stroke="#FF0000" stroke-width="1" x1="102" y1="307" x2="112" y2="317"/>
<line opacity="1" stroke="#FF0000" stroke-width="1" x1="102" y1="317" x2="112" y2="307"/>
<line opacity="1" stroke="#FF0000" stroke-width="1" x1="139" y1="292" x2="149" y2="302"/>
<line opacity="1" stroke="#FF0000" stroke-width="1" x1="139" y1="302" x2="149" y2="292"/>
<line opacity="1" stroke="#FF0000" stroke-width="1" x1="176" y1="276" x2="186" y2="286"/>
<line opacity="1" stroke="#FF0000" stroke-width="1" x1="176" y1="286" x2="186" y2="276"/>
<line opacity="1" stroke="#FF0000" stroke-width="1" x1="213" y1="257" x2="223" y2="267"/>
<line opacity="1" stroke="#FF0000" stroke-width="1" x1="213" y1="267" x2="223" y2="257"/>
<line opacity="1" stroke="#FF0000" stroke-width="1" x1="250" y1="235" x2="260" y2="245"/>
<line opacity="1" stroke="#FF0000" stroke-width="1" x1="250" y1="245" x2="260" y2="235"/>
<line opacity="1" stroke="#FF0000" stroke-width="1" x1="287" y1="210" x2="297" y2="220"/>
<line opacity="1" stroke="#FF0000" stroke-width="1" x1="287" y1="220" x2="297" y2="210"/>
<line opacity="1" stroke="#FF0000" stroke-width="1" x1="324" y1="183" x2="334" y2="193"/>
<line opacity="1" stroke="#FF0000" stroke-width="1" x1="324" y1="193" x2="334" y2="183"/>
<line opacity="1" stroke="#FF0000" stroke-width="1" x1="361" y1="151" x2="371" y2="161"/>
<line opacity="1" stroke="#FF0000" stroke-width="1" x1="361" y1="161" x2="371" y2="151"/>
<line opacity="1" stroke="#FF0000" stroke-width="1" x1="398" y1="115" x2="408" y2="125"/>
<line opacity="1" stroke="#FF0000" stroke-width="1" x1="398" y1="125" x2="408" y2="115"/>
<line opacity="1" stroke="#FF0000" stroke-width="1" x1="435" y1="67" x2="445" y2="77"/>
<line opacity="1" stroke="#FF0000" stroke-width="1" x1="435" y1="77" x2="445" y2="67"/>
<line opacity="1" stroke="#FF0000" stroke-width="1" x1="472" y1="15" x2="482" y2="25"/>
<line opacity="1" stroke="#FF0000" stroke-width="1" x1="472" y1="25" x2="482" y2="15"/>
<polyline fill="none" opacity="1" stroke="#FF0000" stroke-width="1" points="70,306 73,304 77,301 81,299 84,297 88,294 92,292 95,289 99,287 103,284 107,281 110,279 114,276 118,273 121,270 125,267 129,264 133,261 136,258 140,255 144,251 147,248 151,245 155,241 158,238 162,234 166,231 170,227 173,224 177,220 181,216 184,212 188,208 192,204 196,200 199,196 203,192 207,188 210,184 214,180 218,175 221,171 225,166 229,162 233,157 236,153 240,148 244,143 247,139 251,134 255,129 259,124 262,119 266,114 270,109 273,104 277,99 281,93 285,88 288,83 292,77 296,72 299,66 303,61 307,55 310,49 314,44 318,38 322,32 325,26 329,20 333,14 336,10 340,10 344,10 348,10 351,10 355,10 359,10 362,10 366,10 370,10 373,10 377,10 381,10 385,10 388,10 392,10 396,10 399,10 403,10 407,10 411,10 414,10 418,10 422,10 425,10 429,10 433,10 437,10 440,10 444,10 448,10 451,10 455,10 459,10 462,10 466,10 470,10 474,10 477,10 481,10 485,10 488,10 492,10 496,10 500,10 503,10 507,10 511,10 514,10 518,10 522,10 525,10 529,10 533,10 537,10 540,10 544,10 548,10 551,10 555,10 559,10 563,10 566,10 570,10 574,10 577,10 581,10 585,10 "/>
<rect x="75" y="15" width="160" height="147" opacity="0.8" fill="#FFFFFF" stroke="none"/>
<text x="115" y="25" dy="0.76em" text-anchor="start" font-family="sans-serif" font-size="14.516129032258064" opacity="1" fill="#000000">
loss data 50 Hz
</text>
<text x="115" y="48" dy="0.76em" text-anchor="start" font-family="sans-serif" font-size="14.516129032258064" opacity="1" fill="#000000">
model @ 50 Hz
</text>
<text x="115" y="70" dy="0.76em" text-anchor="start" font-family="sans-serif" font-size="14.516129032258064" opacity="1" fill="#000000">
loss data 100 Hz
</text>
<text x="115" y="93" dy="0.76em" text-anchor="start" font-family="sans-serif" font-size="14.516129032258064" opacity="1" fill="#000000">
model @ 100 Hz
</text>
<text x="115" y="115" dy="0.76em" text-anchor="start" font-family="sans-serif" font-size="14.516129032258064" opacity="1" fill="#000000">
loss data 200 Hz
</text>
<text x="115" y="138" dy="0.76em" text-anchor="start" font-family="sans-serif" font-size="14.516129032258064" opacity="1" fill="#000000">
model @ 200 Hz
</text>
<line opacity="1" stroke="#0000FF" stroke-width="1" x1="90" y1="27" x2="100" y2="37"/>
<line opacity="1" stroke="#0000FF" stroke-width="1" x1="90" y1="37" x2="100" y2="27"/>
<polyline fill="none" opacity="1" stroke="#0000FF" stroke-width="1" points="85,55 105,55 "/>
<line opacity="1" stroke="#2E7D32" stroke-width="1" x1="90" y1="72" x2="100" y2="82"/>
<line opacity="1" stroke="#2E7D32" stroke-width="1" x1="90" y1="82" x2="100" y2="72"/>
<polyline fill="none" opacity="1" stroke="#2E7D32" stroke-width="1" points="85,100 105,100 "/>
<line opacity="1" stroke="#FF0000" stroke-width="1" x1="90" y1="117" x2="100" y2="127"/>
<line opacity="1" stroke="#FF0000" stroke-width="1" x1="90" y1="127" x2="100" y2="117"/>
<polyline fill="none" opacity="1" stroke="#FF0000" stroke-width="1" points="85,145 105,145 "/>
</svg>
