<svg width="600" height="400" viewBox="0 0 600 400" xmlns="http://www.w3.org/2000/svg">
<rect x="0" y="0" width="600" height="400" opacity="1" fill="#FFFFFF" stroke="none"/>
<line opacity="0.1" stroke="#000000" stroke-width="1" x1="90" y1="349" x2="90" y2="10"/>
<line opacity="0.1" stroke="#000000" stroke-width="1" x1="98" y1="349" x2="98" y2="10"/>
<line opacity="0.1" stroke="#000000" stroke-width="1" x1="106" y1="349" x2="106" y2="10"/>
<line opacity="0.1" stroke="#000000" stroke-width="1" x1="114" y1="349" x2="114" y2="10"/>
<line opacity="0.1" stroke="#000000" stroke-width="1" x1="123" y1="349" x2="123" y2="10"/>
<line opacity="0.1" stroke="#000000" stroke-width="1" x1="131" y1="349" x2="131" y2="10"/>
<line opacity="0.1" stroke="#000000" stroke-width="1" x1="139" y1="349" x2="139" y2="10"/>
<line opacity="0.1" stroke="#000000" stroke-width="1" x1="148" y1="349" x2="148" y2="10"/>
<line opacity="0.1" stroke="#000000" stroke-width="1" x1="156" y1="349" x2="156" y2="10"/>
<line opacity="0.1" stroke="#000000" stroke-width="1" x1="164" y1="349" x2="164" y2="10"/>
<line opacity="0.1" stroke="#000000" stroke-width="1" x1="173" y1="349" x2="173" y2="10"/>
<line opacity="0.1" stroke="#000000" stroke-width="1" x1="181" y1="349" x2="181" y2="10"/>
<line opacity="0.1" stroke="#000000" stroke-width="1" x1="189" y1="349" x2="189" y2="10"/>
<line opacity="0.1" stroke="#000000" stroke-width="1" x1="198" y1="349" x2="198" y2="10"/>
<line opacity="0.1" stroke="#000000" stroke-width="1" x1="206" y1="349" x2="206" y2="10"/>
<line opacity="0.1" stroke="#000000" stroke-width="1" x1="214" y1="349" x2="214" y2="10"/>
<line opacity="0.1" stroke="#000000" stroke-width="1" x1="223" y1="349" x2="223" y2="10"/>
<line opacity="0.1" stroke="#000000" stroke-width="1" x1="231" y1="349" x2="231" y2="10"/>
<line opacity="0.1" stroke="#000000" stroke-width="1" x1="239" y1="349" x2="239" y2="10"/>
<line opacity="0.1" stroke="#000000" stroke-width="1" x1="248" y1="349" x2="248" y2="10"/>
<line opacity="0.1" stroke="#000000" stroke-width="1" x1="256" y1="349" x2="256" y2="10"/>
<line opacity="0.1" stroke="#000000" stroke-width="1" x1="264" y1="349" x2="264" y2="10"/>
<line opacity="0.1" stroke="#000000" stroke-width="1" x1="272" y1="349" x2="272" y2="10"/>
<line opacity="0.1" stroke="#000000" stroke-width="1" x1="281" y1="349" x2="281" y2="10"/>
<line opacity="0.1" stroke="#000000" stroke-width="1" x1="289" y1="349" x2="289" y2="10"/>
<line opacity="0.1" stroke="#000000" stroke-width="1" x1="297" y1="349" x2="297" y2="10"/>
<line opacity="0.1" stroke="#000000" stroke-width="1" x1="306" y1="349" x2="306" y2="10"/>
<line opacity="0.1" stroke="#000000" stroke-width="1" x1="314" y1="349" x2="314" y2="10"/>
<line opacity="0.1" stroke="#000000" stroke-width="1" x1="322" y1="349" x2="322" y2="10"/>
<line opacity="0.1" stroke="#000000" stroke-width="1" x1="331" y1="349" x2="331" y2="10"/>
<line opacity="0.1" stroke="#000000" stroke-width="1" x1="339" y1="349" x2="339" y2="10"/>
<line opacity="0.1" stroke="#000000" stroke-width="1" x1="347" y1="349" x2="347" y2="10"/>
<line opacity="0.1" stroke="#000000" stroke-width="1" x1="356" y1="349" x2="356" y2="10"/>
<line opacity="0.1" stroke="#000000" stroke-width="1" x1="364" y1="349" x2="364" y2="10"/>
<line opacity="0.1" stroke="#000000" stroke-width="1" x1="372" y1="349" x2="372" y2="10"/>
<line opacity="0.1" stroke="#000000" stroke-width="1" x1="381" y1="349" x2="381" y2="10"/>
<line opacity="0.1" stroke="#000000" stroke-width="1" x1="389" y1="349" x2="389" y2="10"/>
<line opacity="0.1" stroke="#000000" stroke-width="1" x1="397" y1="349" x2="397" y2="10"/>
<line opacity="0.1" stroke="#000000" stroke-width="1" x1="406" y1="349" x2="406" y2="10"/>
<line opacity="0.1" stroke="#000000" stroke-width="1" x1="414" y1="349" x2="414" y2="10"/>
<line opacity="0.1" stroke="#000000" stroke-width="1" x1="422" y1="349" x2="422" y2="10"/>
<line opacity="0.1" stroke="#000000" stroke-width="1" x1="430" y1="349" x2="430" y2="10"/>
<line opacity="0.1" stroke="#000000" stroke-width="1" x1="439" y1="349" x2="439" y2="10"/>
<line opacity="0.1" stroke="#000000" stroke-width="1" x1="447" y1="349" x2="447" y2="10"/>
<line opacity="0.1" stroke="#000000" stroke-width="1" x1="455" y1="349" x2="455" y2="10"/>
<line opacity="0.1" stroke="#000000" stroke-width="1" x1="464" y1="349" x2="464" y2="10"/>
<line opacity="0.1" stroke="#000000" stroke-width="1" x1="472" y1="349" x2="472" y2="10"/>
<line opacity="0.1" stroke="#000000" stroke-width="1" x1="480" y1="349" x2="480" y2="10"/>
<line opacity="0.1" stroke="#000000" stroke-width="1" x1="489" y1="349" x2="489" y2="10"/>
<line opacity="0.1" stroke="#000000" stroke-width="1" x1="497" y1="349" x2="497" y2="10"/>
<line opacity="0.1" stroke="#000000" stroke-width="1" x1="505" y1="349" x2="505" y2="10"/>
<line opacity="0.1" stroke="#000000" stroke-width="1" x1="514" y1="349" x2="514" y2="10"/>
<line opacity="0.1" stroke="#000000" stroke-width="1" x1="522" y1="349" x2="522" y2="10"/>
<line opacity="0.1" stroke="#000000" stroke-width="1" x1="530" y1="349" x2="530" y2="10"/>
<line opacity="0.1" stroke="#000000" stroke-width="1" x1="539" y1="349" x2="539" y2="10"/>
<line opacity="0.1" stroke="#000000" stroke-width="1" x1="547" y1="349" x2="547" y2="10"/>
<line opacity="0.1" stroke="#000000" stroke-width="1" x1="555" y1="349" x2="555" y2="10"/>
<line opacity="0.1" stroke="#000000" stroke-width="1" x1="564" y1="349" x2="564" y2="10"/>
<line opacity="0.1" stroke="#000000" stroke-width="1" x1="572" y1="349" x2="572" y2="10"/>
<line opacity="0.1" stroke="#000000" stroke-width="1" x1="580" y1="349" x2="580" y2="10"/>
<line opacity="0.1" stroke="#000000" stroke-width="1" x1="589" y1="349" x2="589" y2="10"/>
<line opacity="0.1" stroke="#000000" stroke-width="1" x1="90" y1="349" x2="589" y2="349"/>
<line opacity="0.1" stroke="#000000" stroke-width="1" x1="90" y1="346" x2="589" y2="346"/>
<line opacity="0.1" stroke="#000000" stroke-width="1" x1="90" y1="342" x2="589" y2="342"/>
<line opacity="0.1" stroke="#000000" stroke-width="1" x1="90" y1="338" x2="589" y2="338"/>
<line opacity="0.1" stroke="#000000" stroke-width="1" x1="90" y1="334" x2="589" y2="334"/>
<line opacity="0.1" stroke="#000000" stroke-width="1" x1="90" y1="331" x2="589" y2="331"/>
<line opacity="0.1" stroke="#000000" stroke-width="1" x1="90" y1="327" x2="589" y2="327"/>
<line opacity="0.1" stroke="#000000" stroke-width="1" x1="90" y1="323" x2="589" y2="323"/>
<line opacity="0.1" stroke="#000000" stroke-width="1" x1="90" y1="319" x2="589" y2="319"/>
<line opacity="0.1" stroke="#000000" stroke-width="1" x1="90" y1="316" x2="589" y2="316"/>
<line opacity="0.1" stroke="#000000" stroke-width="1" x1="90" y1="312" x2="589" y2="312"/>
<line opacity="0.1" stroke="#000000" stroke-width="1" x1="90" y1="308" x2="589" y2="308"/>
<line opacity="0.1" stroke="#000000" stroke-width="1" x1="90" y1="304" x2="589" y2="304"/>
<line opacity="0.1" stroke="#000000" stroke-width="1" x1="90" y1="301" x2="589" y2="301"/>
<line opacity="0.1" stroke="#000000" stroke-width="1" x1="90" y1="297" x2="589" y2="297"/>
<line opacity="0.1" stroke="#000000" stroke-width="1" x1="90" y1="293" x2="589" y2="293"/>
<line opacity="0.1" stroke="#000000" stroke-width="1" x1="90" y1="289" x2="589" y2="289"/>
<line opacity="0.1" stroke="#000000" stroke-width="1" x1="90" y1="285" x2="589" y2="285"/>
<line opacity="0.1" stroke="#000000" stroke-width="1" x1="90" y1="282" x2="589" y2="282"/>
<line opacity="0.1" stroke="#000000" stroke-width="1" x1="90" y1="278" x2="589" y2="278"/>
<line opacity="0.1" stroke="#000000" stroke-width="1" x1="90" y1="274" x2="589" y2="274"/>
<line opacity="0.1" stroke="#000000" stroke-width="1" x1="90" y1="270" x2="589" y2="270"/>
<line opacity="0.1" stroke="#000000" stroke-width="1" x1="90" y1="267" x2="589" y2="267"/>
<line opacity="0.1" stroke="#000000" stroke-width="1" x1="90" y1="263" x2="589" y2="263"/>
<line opacity="0.1" stroke="#000000" stroke-width="1" x1="90" y1="259" x2="589" y2="259"/>
<line opacity="0.1" stroke="#000000" stroke-width="1" x1="90" y1="255" x2="589" y2="255"/>
<line opacity="0.1" stroke="#000000" stroke-width="1" x1="90" y1="252" x2="589" y2="252"/>
<line opacity="0.1" stroke="#000000" stroke-width="1" x1="90" y1="248" x2="589" y2="248"/>
<line opacity="0.1" stroke="#000000" stroke-width="1" x1="90" y1="244" x2="589" y2="244"/>
<line opacity="0.1" stroke="#000000" stroke-width="1" x1="90" y1="240" x2="589" y2="240"/>
<line opacity="0.1" stroke="#000000" stroke-width="1" x1="90" y1="236" x2="589" y2="236"/>
<line opacity="0.1" stroke="#000000" stroke-width="1" x1="90" y1="233" x2="589" y2="233"/>
<line opacity="0.1" stroke="#000000" stroke-width="1" x1="90" y1="229" x2="589" y2="229"/>
<line opacity="0.1" stroke="#000000" stroke-width="1" x1="90" y1="225" x2="589" y2="225"/>
<line opacity="0.1" stroke="#000000" stroke-width="1" x1="90" y1="221" x2="589" y2="221"/>
<line opacity="0.1" stroke="#000000" stroke-width="1" x1="90" y1="218" x2="589" y2="218"/>
<line opacity="0.1" stroke="#000000" stroke-width="1" x1="90" y1="214" x2="589" y2="214"/>
<line opacity="0.1" stroke="#000000" stroke-width="1" x1="90" y1="210" x2="589" y2="210"/>
<line opacity="0.1" stroke="#000000" stroke-width="1" x1="90" y1="206" x2="589" y2="206"/>
<line opacity="0.1" stroke="#000000" stroke-width="1" x1="90" y1="203" x2="589" y2="203"/>
<line opacity="0.1" stroke="#000000" stroke-width="1" x1="90" y1="199" x2="589" y2="199"/>
<line opacity="0.1" stroke="#000000" stroke-width="1" x1="90" y1="195" x2="589" y2="195"/>
<line opacity="0.1" stroke="#000000" stroke-width="1" x1="90" y1="191" x2="589" y2="191"/>
<line opacity="0.1" stroke="#000000" stroke-width="1" x1="90" y1="188" x2="589" y2="188"/>
<line opacity="0.1" stroke="#000000" stroke-width="1" x1="90" y1="184" x2="589" y2="184"/>
<line opacity="0.1" stroke="#000000" stroke-width="1" x1="90" y1="180" x2="589" y2="180"/>
<line opacity="0.1" stroke="#000000" stroke-width="1" x1="90" y1="176" x2="589" y2="176"/>
<line opacity="0.1" stroke="#000000" stroke-width="1" x1="90" y1="172" x2="589" y2="172"/>
<line opacity="0.1" stroke="#000000" stroke-width="1" x1="90" y1="169" x2="589" y2="169"/>
<line opacity="0.1" stroke="#000000" stroke-width="1" x1="90" y1="165" x2="589" y2="165"/>
<line opacity="0.1" stroke="#000000" stroke-width="1" x1="90" y1="161" x2="589" y2="161"/>
<line opacity="0.1" stroke="#000000" stroke-width="1" x1="90" y1="157" x2="589" y2="157"/>
<line opacity="0.1" stroke="#000000" stroke-width="1" x1="90" y1="154" x2="589" y2="154"/>
<line opacity="0.1" stroke="#000000" stroke-width="1" x1="90" y1="150" x2="589" y2="150"/>
<line opacity="0.1" stroke="#000000" stroke-width="1" x1="90" y1="146" x2="589" y2="146"/>
<line opacity="0.1" stroke="#000000" stroke-width="1" x1="90" y1="142" x2="589" y2="142"/>
<line opacity="0.1" stroke="#000000" stroke-width="1" x1="90" y1="139" x2="589" y2="139"/>
<line opacity="0.1" stroke="#000000" stroke-width="1" x1="90" y1="135" x2="589" y2="135"/>
<line opacity="0.1" stroke="#000000" stroke-width="1" x1="90" y1="131" x2="589" y2="131"/>
<line opacity="0.1" stroke="#000000" stroke-width="1" x1="90" y1="127" x2="589" y2="127"/>
<line opacity="0.1" stroke="#000000" stroke-width="1" x1="90" y1="123" x2="589" y2="123"/>
<line opacity="0.1" stroke="#000000" stroke-width="1" x1="90" y1="120" x2="589" y2="120"/>
<line opacity="0.1" stroke="#000000" stroke-width="1" x1="90" y1="116" x2="589" y2="116"/>
<line opacity="0.1" stroke="#000000" stroke-width="1" x1="90" y1="112" x2="589" y2="112"/>
<line opacity="0.1" stroke="#000000" stroke-width="1" x1="90" y1="108" x2="589" y2="108"/>
<line opacity="0.1" stroke="#000000" stroke-width="1" x1="90" y1="105" x2="589" y2="105"/>
<line opacity="0.1" stroke="#000000" stroke-width="1" x1="90" y1="101" x2="589" y2="101"/>
<line opacity="0.1" stroke="#000000" stroke-width="1" x1="90" y1="97" x2="589" y2="97"/>
<line opacity="0.1" stroke="#000000" stroke-width="1" x1="90" y1="93" x2="589" y2="93"/>
<line opacity="0.1" stroke="#000000" stroke-width="1" x1="90" y1="90" x2="589" y2="90"/>
<line opacity="0.1" stroke="#000000" stroke-width="1" x1="90" y1="86" x2="589" y2="86"/>
<line opacity="0.1" stroke="#000000" stroke-width="1" x1="90" y1="82" x2="589" y2="82"/>
<line opacity="0.1" stroke="#000000" stroke-width="1" x1="90" y1="78" x2="589" y2="78"/>
<line opacity="0.1" stroke="#000000" stroke-width="1" x1="90" y1="75" x2="589" y2="75"/>
<line opacity="0.1" stroke="#000000" stroke-width="1" x1="90" y1="71" x2="589" y2="71"/>
<line opacity="0.1" stroke="#000000" stroke-width="1" x1="90" y1="67" x2="589" y2="67"/>
<line opacity="0.1" stroke="#000000" stroke-width="1" x1="90" y1="63" x2="589" y2="63"/>
<line opacity="0.1" stroke="#000000" stroke-width="1" x1="90" y1="59" x2="589" y2="59"/>
<line opacity="0.1" stroke="#000000" stroke-width="1" x1="90" y1="56" x2="589" y2="56"/>
<line opacity="0.1" stroke="#000000" stroke-width="1" x1="90" y1="52" x2="589" y2="52"/>
<line opacity="0.1" stroke="#000000" stroke-width="1" x1="90" y1="48" x2="589" y2="48"/>
<line opacity="0.1" stroke="#000000" stroke-width="1" x1="90" y1="44" x2="589" y2="44"/>
<line opacity="0.1" stroke="#000000" stroke-width="1" x1="90" y1="41" x2="589" y2="41"/>
<line opacity="0.1" stroke="#000000" stroke-width="1" x1="90" y1="37" x2="589" y2="37"/>
<line opacity="0.1" stroke="#000000" stroke-width="1" x1="90" y1="33" x2="589" y2="33"/>
<line opacity="0.1" stroke="#000000" stroke-width="1" x1="90" y1="29" x2="589" y2="29"/>
<line opacity="0.1" stroke="#000000" stroke-width="1" x1="90" y1="26" x2="589" y2="26"/>
<line opacity="0.1" stroke="#000000" stroke-width="1" x1="90" y1="22" x2="589" y2="22"/>
<line opacity="0.1" stroke="#000000" stroke-width="1" x1="90" y1="18" x2="589" y2="18"/>
<line opacity="0.1" stroke="#000000" stroke-width="1" x1="90" y1="14" x2="589" y2="14"/>
<line opacity="0.1" stroke="#000000" stroke-width="1" x1="90" y1="10" x2="589" y2="10"/>
<text x="10" y="180" dy="0.76em" text-anchor="middle" font-family="sans-serif" font-size="14.516129032258064" opacity="1" fill="#000000" transform="rotate(270, 10, 180)">
Relative permeability
</text>
<text x="340" y="390" dy="-0.5ex" text-anchor="middle" font-family="sans-serif" font-size="14.516129032258064" opacity="1" fill="#000000">
Flux density in T
</text>
<line opacity="0.2" stroke="#000000" stroke-width="1" x1="90" y1="349" x2="90" y2="10"/>
<line opacity="0.2" stroke="#000000" stroke-width="1" x1="173" y1="349" x2="173" y2="10"/>
<line opacity="0.2" stroke="#000000" stroke-width="1" x1="256" y1="349" x2="256" y2="10"/>
<line opacity="0.2" stroke="#000000" stroke-width="1" x1="339" y1="349" x2="339" y2="10"/>
<line opacity="0.2" stroke="#000000" stroke-width="1" x1="422" y1="349" x2="422" y2="10"/>
<line opacity="0.2" stroke="#000000" stroke-width="1" x1="505" y1="349" x2="505" y2="10"/>
<line opacity="0.2" stroke="#000000" stroke-width="1" x1="589" y1="349" x2="589" y2="10"/>
<line opacity="0.2" stroke="#000000" stroke-width="1" x1="90" y1="349" x2="589" y2="349"/>
<line opacity="0.2" stroke="#000000" stroke-width="1" x1="90" y1="312" x2="589" y2="312"/>
<line opacity="0.2" stroke="#000000" stroke-width="1" x1="90" y1="274" x2="589" y2="274"/>
<line opacity="0.2" stroke="#000000" stroke-width="1" x1="90" y1="236" x2="589" y2="236"/>
<line opacity="0.2" stroke="#000000" stroke-width="1" x1="90" y1="199" x2="589" y2="199"/>
<line opacity="0.2" stroke="#000000" stroke-width="1" x1="90" y1="161" x2="589" y2="161"/>
<line opacity="0.2" stroke="#000000" stroke-width="1" x1="90" y1="123" x2="589" y2="123"/>
<line opacity="0.2" stroke="#000000" stroke-width="1" x1="90" y1="86" x2="589" y2="86"/>
<line opacity="0.2" stroke="#000000" stroke-width="1" x1="90" y1="48" x2="589" y2="48"/>
<line opacity="0.2" stroke="#000000" stroke-width="1" x1="90" y1="10" x2="589" y2="10"/>
<polyline fill="none" opacity="1" stroke="#000000" stroke-width="1" points="89,10 89,349 "/>
<text x="80" y="349" dy="0.5ex" text-anchor="end" font-family="sans-serif" font-size="12.903225806451614" opacity="1" fill="#000000">
0.0
</text>
<polyline fill="none" opacity="1" stroke="#000000" stroke-width="1" points="84,349 89,349 "/>
<text x="80" y="312" dy="0.5ex" text-anchor="end" font-family="sans-serif" font-size="12.903225806451614" opacity="1" fill="#000000">
1000.0
</text>
<polyline fill="none" opacity="1" stroke="#000000" stroke-width="1" points="84,312 89,312 "/>
<text x="80" y="274" dy="0.5ex" text-anchor="end" font-family="sans-serif" font-size="12.903225806451614" opacity="1" fill="#000000">
2000.0
</text>
<polyline fill="none" opacity="1" stroke="#000000" stroke-width="1" points="84,274 89,274 "/>
<text x="80" y="236" dy="0.5ex" text-anchor="end" font-family="sans-serif" font-size="12.903225806451614" opacity="1" fill="#000000">
3000.0
</text>
<polyline fill="none" opacity="1" stroke="#000000" stroke-width="1" points="84,236 89,236 "/>
<text x="80" y="199" dy="0.5ex" text-anchor="end" font-family="sans-serif" font-size="12.903225806451614" opacity="1" fill="#000000">
4000.0
</text>
<polyline fill="none" opacity="1" stroke="#000000" stroke-width="1" points="84,199 89,199 "/>
<text x="80" y="161" dy="0.5ex" text-anchor="end" font-family="sans-serif" font-size="12.903225806451614" opacity="1" fill="#000000">
5000.0
</text>
<polyline fill="none" opacity="1" stroke="#000000" stroke-width="1" points="84,161 89,161 "/>
<text x="80" y="123" dy="0.5ex" text-anchor="end" font-family="sans-serif" font-size="12.903225806451614" opacity="1" fill="#000000">
6000.0
</text>
<polyline fill="none" opacity="1" stroke="#000000" stroke-width="1" points="84,123 89,123 "/>
<text x="80" y="86" dy="0.5ex" text-anchor="end" font-family="sans-serif" font-size="12.903225806451614" opacity="1" fill="#000000">
7000.0
</text>
<polyline fill="none" opacity="1" stroke="#000000" stroke-width="1" points="84,86 89,86 "/>
<text x="80" y="48" dy="0.5ex" text-anchor="end" font-family="sans-serif" font-size="12.903225806451614" opacity="1" fill="#000000">
8000.0
</text>
<polyline fill="none" opacity="1" stroke="#000000" stroke-width="1" points="84,48 89,48 "/>
<text x="80" y="10" dy="0.5ex" text-anchor="end" font-family="sans-serif" font-size="12.903225806451614" opacity="1" fill="#000000">
9000.0
</text>
<polyline fill="none" opacity="1" stroke="#000000" stroke-width="1" points="84,10 89,10 "/>
<polyline fill="none" opacity="1" stroke="#000000" stroke-width="1" points="90,350 589,350 "/>
<text x="90" y="360" dy="0.76em" text-anchor="middle" font-family="sans-serif" font-size="12.903225806451614" opacity="1" fill="#000000">
0.0
</text>
<polyline fill="none" opacity="1" stroke="#000000" stroke-width="1" points="90,350 90,355 "/>
<text x="173" y="360" dy="0.76em" text-anchor="middle" font-family="sans-serif" font-size="12.903225806451614" opacity="1" fill="#000000">
0.5
</text>
<polyline fill="none" opacity="1" stroke="#000000" stroke-width="1" points="173,350 173,355 "/>
<text x="256" y="360" dy="0.76em" text-anchor="middle" font-family="sans-serif" font-size="12.903225806451614" opacity="1" fill="#000000">
1.0
</text>
<polyline fill="none" opacity="1" stroke="#000000" stroke-width="1" points="256,350 256,355 "/>
<text x="339" y="360" dy="0.76em" text-anchor="middle" font-family="sans-serif" font-size="12.903225806451614" opacity="1" fill="#000000">
1.5
</text>
<polyline fill="none" opacity="1" stroke="#000000" stroke-width="1" points="339,350 339,355 "/>
<text x="422" y="360" dy="0.76em" text-anchor="middle" font-family="sans-serif" font-size="12.903225806451614" opacity="1" fill="#000000">
2.0
</text>
<polyline fill="none" opacity="1" stroke="#000000" stroke-width="1" points="422,350 422,355 "/>
<text x="505" y="360" dy="0.76em" text-anchor="middle" font-family="sans-serif" font-size="12.903225806451614" opacity="1" fill="#000000">
2.5
</text>
<polyline fill="none" opacity="1" stroke="#000000" stroke-width="1" points="505,350 505,355 "/>
<text x="589" y="360" dy="0.76em" text-anchor="middle" font-family="sans-serif" font-size="12.903225806451614" opacity="1" fill="#000000">
3.0
</text>
<polyline fill="none" opacity="1" stroke="#000000" stroke-width="1" points="589,350 589,355 "/>
<line opacity="1" stroke="#0000FF" stroke-width="1" x1="101" y1="93" x2="111" y2="103"/>
<line opacity="1" stroke="#0000FF" stroke-width="1" x1="101" y1="103" x2="111" y2="93"/>
<line opacity="1" stroke="#0000FF" stroke-width="1" x1="117" y1="81" x2="127" y2="91"/>
<line opacity="1" stroke="#0000FF" stroke-width="1" x1="117" y1="91" x2="127" y2="81"/>
<line opacity="1" stroke="#0000FF" stroke-width="1" x1="133" y1="69" x2="143" y2="79"/>
<line opacity="1" stroke="#0000FF" stroke-width="1" x1="133" y1="79" x2="143" y2="69"/>
<line opacity="1" stroke="#0000FF" stroke-width="1" x1="149" y1="57" x2="159" y2="67"/>
<line opacity="1" stroke="#0000FF" stroke-width="1" x1="149" y1="67" x2="159" y2="57"/>
<line opacity="1" stroke="#0000FF" stroke-width="1" x1="165" y1="45" x2="175" y2="55"/>
<line opacity="1" stroke="#0000FF" stroke-width="1" x1="165" y1="55" x2="175" y2="45"/>
<line opacity="1" stroke="#0000FF" stroke-width="1" x1="181" y1="29" x2="191" y2="39"/>
<line opacity="1" stroke="#0000FF" stroke-width="1" x1="181" y1="39" x2="191" y2="29"/>
<line opacity="1" stroke="#0000FF" stroke-width="1" x1="197" y1="27" x2="207" y2="37"/>
<line opacity="1" stroke="#0000FF" stroke-width="1" x1="197" y1="37" x2="207" y2="27"/>
<line opacity="1" stroke="#0000FF" stroke-width="1" x1="214" y1="37" x2="224" y2="47"/>
<line opacity="1" stroke="#0000FF" stroke-width="1" x1="214" y1="47" x2="224" y2="37"/>
<line opacity="1" stroke="#0000FF" stroke-width="1" x1="230" y1="51" x2="240" y2="61"/>
<line opacity="1" stroke="#0000FF" stroke-width="1" x1="230" y1="61" x2="240" y2="51"/>
<line opacity="1" stroke="#0000FF" stroke-width="1" x1="246" y1="74" x2="256" y2="84"/>
<line opacity="1" stroke="#0000FF" stroke-width="1" x1="246" y1="84" x2="256" y2="74"/>
<line opacity="1" stroke="#0000FF" stroke-width="1" x1="262" y1="107" x2="272" y2="117"/>
<line opacity="1" stroke="#0000FF" stroke-width="1" x1="262" y1="117" x2="272" y2="107"/>
<line opacity="1" stroke="#0000FF" stroke-width="1" x1="278" y1="150" x2="288" y2="160"/>
<line opacity="1" stroke="#0000FF" stroke-width="1" x1="278" y1="160" x2="288" y2="150"/>
<line opacity="1" stroke="#0000FF" stroke-width="1" x1="294" y1="208" x2="304" y2="218"/>
<line opacity="1" stroke="#0000FF" stroke-width="1" x1="294" y1="218" x2="304" y2="208"/>
<line opacity="1" stroke="#0000FF" stroke-width="1" x1="311" y1="275" x2="321" y2="285"/>
<line opacity="1" stroke="#0000FF" stroke-width="1" x1="311" y1="285" x2="321" y2="275"/>
<line opacity="1" stroke="#0000FF" stroke-width="1" x1="327" y1="317" x2="337" y2="327"/>
<line opacity="1" stroke="#0000FF" stroke-width="1" x1="327" y1="327" x2="337" y2="317"/>
<line opacity="1" stroke="#0000FF" stroke-width="1" x1="343" y1="331" x2="353" y2="341"/>
<line opacity="1" stroke="#0000FF" stroke-width="1" x1="343" y1="341" x2="353" y2="331"/>
<line opacity="1" stroke="#0000FF" stroke-width="1" x1="360" y1="337" x2="370" y2="347"/>
<line opacity="1" stroke="#0000FF" stroke-width="1" x1="360" y1="347" x2="370" y2="337"/>
<line opacity="1" stroke="#0000FF" stroke-width="1" x1="377" y1="340" x2="387" y2="350"/>
<line opacity="1" stroke="#0000FF" stroke-width="1" x1="377" y1="350" x2="387" y2="340"/>
<line opacity="1" stroke="#0000FF" stroke-width="1" x1="395" y1="342" x2="405" y2="352"/>
<line opacity="1" stroke="#0000FF" stroke-width="1" x1="395" y1="352" x2="405" y2="342"/>
<line opacity="1" stroke="#0000FF" stroke-width="1" x1="412" y1="343" x2="422" y2="353"/>
<line opacity="1" stroke="#0000FF" stroke-width="1" x1="412" y1="353" x2="422" y2="343"/>
<line opacity="1" stroke="#0000FF" stroke-width="1" x1="428" y1="343" x2="438" y2="353"/>
<line opacity="1" stroke="#0000FF" stroke-width="1" x1="428" y1="353" x2="438" y2="343"/>
<line opacity="1" stroke="#0000FF" stroke-width="1" x1="445" y1="344" x2="455" y2="354"/>
<line opacity="1" stroke="#0000FF" stroke-width="1" x1="445" y1="354" x2="455" y2="344"/>
<line opacity="1" stroke="#0000FF" stroke-width="1" x1="462" y1="344" x2="472" y2="354"/>
<line opacity="1" stroke="#0000FF" stroke-width="1" x1="462" y1="354" x2="472" y2="344"/>
<line opacity="1" stroke="#0000FF" stroke-width="1" x1="478" y1="344" x2="488" y2="354"/>
<line opacity="1" stroke="#0000FF" stroke-width="1" x1="478" y1="354" x2="488" y2="344"/>
<line opacity="1" stroke="#0000FF" stroke-width="1" x1="495" y1="344" x2="505" y2="354"/>
<line opacity="1" stroke="#0000FF" stroke-width="1" x1="495" y1="354" x2="505" y2="344"/>
<line opacity="1" stroke="#0000FF" stroke-width="1" x1="496" y1="344" x2="506" y2="354"/>
<line opacity="1" stroke="#0000FF" stroke-width="1" x1="496" y1="354" x2="506" y2="344"/>
<polyline fill="none" opacity="1" stroke="#2E7D32" stroke-width="1" points="90,30 90,30 90,30 90,30 90,30 90,30 90,30 91,30 91,30 91,30 91,30 91,30 91,30 92,30 92,30 92,30 92,30 92,30 92,30 93,30 93,30 93,30 93,30 93,30 93,30 94,30 94,30 94,30 94,30 94,30 94,30 95,30 95,30 95,30 95,30 95,30 95,30 96,30 96,30 96,30 96,30 96,30 96,30 97,30 97,30 97,30 97,30 97,30 97,30 98,30 98,30 98,30 98,30 98,30 98,30 99,30 99,30 99,30 99,30 99,30 99,30 100,30 100,30 100,30 100,30 100,30 100,30 101,30 101,30 101,30 101,30 101,30 101,30 102,30 102,30 102,30 102,30 102,30 102,30 103,30 103,30 103,30 103,30 103,30 103,30 104,30 104,30 104,30 104,30 104,30 104,30 105,30 105,30 105,30 105,30 105,30 105,30 106,30 106,30 106,30 106,30 106,30 106,30 107,30 107,30 107,30 107,30 107,30 107,30 108,30 108,30 108,30 108,30 108,30 108,30 109,30 109,30 109,30 109,30 109,30 109,30 110,30 110,30 110,30 110,30 110,30 110,30 111,30 111,30 111,30 111,30 111,30 111,30 112,30 112,30 112,30 112,30 112,30 112,30 113,30 113,30 113,30 113,30 113,30 113,30 114,30 114,30 114,30 114,30 114,30 114,30 115,30 115,30 115,30 115,30 115,30 115,30 116,30 116,30 116,30 116,30 116,30 116,30 117,30 117,30 117,30 117,30 117,30 117,30 118,30 118,30 118,30 118,30 118,30 118,30 119,30 119,30 119,30 119,30 119,30 119,30 120,30 120,30 120,30 120,30 120,30 120,30 121,30 121,30 121,30 121,30 121,30 121,30 122,30 122,30 122,30 122,30 122,30 122,30 123,30 123,30 123,30 123,30 123,30 123,30 124,30 124,30 124,30 124,30 124,30 124,30 125,30 125,30 125,30 125,30 125,30 125,30 126,30 126,30 126,30 126,30 126,30 126,30 127,30 127,30 127,30 127,30 127,30 127,30 128,30 128,30 128,30 128,30 128,30 128,30 129,30 129,30 129,30 129,30 129,30 129,30 130,30 130,30 130,30 130,30 130,30 130,30 131,30 131,30 131,30 131,30 131,30 131,30 132,30 132,30 132,30 132,30 132,30 132,30 133,30 133,30 133,30 133,30 133,30 133,30 134,30 134,30 134,30 134,30 134,30 134,30 135,30 135,30 135,30 135,30 135,30 135,30 136,30 136,30 136,30 136,30 136,30 136,30 137,30 137,30 137,30 137,30 137,30 137,30 138,30 138,30 138,30 138,30 138,30 138,30 139,30 139,30 139,30 139,30 139,30 139,30 140,30 140,30 140,30 140,30 140,30 140,30 141,30 141,30 141,30 141,30 141,30 141,30 142,30 142,30 142,30 142,30 142,30 142,30 143,30 143,30 143,30 143,30 143,30 143,30 144,30 144,30 144,30 144,30 144,30 144,30 145,30 145,30 145,30 145,30 145,30 145,30 146,30 146,30 146,30 146,30 146,30 146,30 147,30 147,30 147,30 147,30 147,30 147,30 148,30 148,30 148,30 148,30 148,30 148,30 149,30 149,30 149,30 149,30 149,30 149,30 150,30 150,30 150,30 150,30 150,30 150,30 151,30 151,30 151,30 151,30 151,30 151,30 152,30 152,30 152,30 152,30 152,30 152,30 153,30 153,30 153,30 153,30 153,30 153,30 154,30 154,30 154,30 154,30 154,30 154,30 155,30 155,30 155,30 155,30 155,30 155,30 156,30 156,30 156,30 156,30 156,30 156,30 157,30 157,30 157,30 157,30 157,30 157,30 158,30 158,30 158,30 158,30 158,30 158,30 159,30 159,30 159,30 159,30 159,30 159,30 160,30 160,30 160,30 160,30 160,30 160,30 161,30 161,30 161,30 161,30 161,30 161,30 162,30 162,30 162,30 162,30 162,30 162,30 163,30 163,30 163,30 163,30 163,30 163,30 164,30 164,30 164,30 164,30 164,30 164,30 165,30 165,30 165,30 165,30 165,30 165,30 166,30 166,30 166,30 166,30 166,30 166,30 167,30 167,30 167,30 167,30 167,30 167,30 168,30 168,30 168,30 168,30 168,30 168,30 169,30 169,30 169,30 169,30 169,30 169,30 170,30 170,30 170,30 170,30 170,30 170,30 171,30 171,30 171,30 171,30 171,30 171,30 172,30 172,30 172,30 172,30 172,30 172,30 173,30 173,30 173,30 173,30 173,30 173,30 173,30 174,30 174,30 174,30 174,30 174,30 174,30 175,30 175,30 175,30 175,30 175,30 175,30 176,30 176,30 176,30 176,30 176,30 176,30 177,30 177,30 177,30 177,30 177,30 177,30 178,30 178,30 178,30 178,30 178,30 178,30 179,30 179,30 179,30 179,30 179,30 179,30 180,30 180,30 180,30 180,30 180,30 180,30 181,30 181,30 181,30 181,30 181,30 181,30 182,30 182,30 182,30 182,30 182,30 182,30 183,30 183,30 183,30 183,30 183,30 183,30 184,30 184,30 184,30 184,30 184,30 184,30 185,30 185,30 185,30 185,30 185,30 185,30 186,30 186,30 186,30 186,30 186,30 186,30 187,30 187,30 187,30 187,30 187,30 187,30 188,30 188,30 188,30 188,30 188,30 188,30 189,30 189,30 189,30 189,30 189,30 189,30 190,30 190,30 190,30 190,30 190,30 190,30 191,30 191,30 191,30 191,30 191,30 191,30 192,30 192,30 192,30 192,30 192,30 192,30 193,30 193,30 193,30 193,30 193,30 193,30 194,30 194,30 194,30 194,30 194,30 194,30 195,30 195,30 195,30 195,30 195,30 195,30 196,30 196,30 196,30 196,30 196,30 196,31 197,31 197,31 197,31 197,31 197,31 197,31 198,31 198,31 198,31 198,31 198,31 198,31 199,31 199,31 199,31 199,31 199,31 199,31 200,31 200,31 200,31 200,31 200,31 200,31 201,31 201,31 201,31 201,31 201,31 201,31 202,32 202,32 202,32 202,32 202,32 202,32 203,32 203,32 203,32 203,32 203,32 203,32 204,32 204,32 204,32 204,33 204,33 204,33 205,33 205,33 205,33 205,33 205,33 205,33 206,33 206,33 206,33 206,33 206,34 206,34 207,34 207,34 207,34 207,34 207,34 207,34 208,34 208,34 208,35 208,35 208,35 208,35 209,35 209,35 209,35 209,35 209,35 209,35 210,36 210,36 210,36 210,36 210,36 210,36 211,36 211,36 211,36 211,37 211,37 211,37 212,37 212,37 212,37 212,37 212,37 212,37 213,38 213,38 213,38 213,38 213,38 213,38 214,38 214,38 214,39 214,39 214,39 214,39 215,39 215,39 215,39 215,39 215,40 215,40 216,40 216,40 216,40 216,40 216,40 216,40 217,41 217,41 217,41 217,41 217,41 217,41 218,41 218,41 218,42 218,42 218,42 218,42 219,42 219,42 219,42 219,43 219,43 219,43 220,43 220,43 220,43 220,43 220,43 220,44 221,44 221,44 221,44 221,44 221,44 221,44 222,45 222,45 222,45 222,45 222,45 222,45 223,45 223,45 223,46 223,46 223,46 223,46 224,46 224,46 224,46 224,46 224,47 224,47 225,47 225,47 225,47 225,47 225,47 225,48 226,48 226,48 226,48 226,48 226,48 226,48 227,48 227,49 227,49 227,49 227,49 227,49 228,49 228,49 228,50 228,50 228,50 228,50 229,50 229,50 229,51 229,51 229,51 229,51 230,51 230,51 230,51 230,52 230,52 230,52 231,52 231,52 231,52 231,53 231,53 231,53 232,53 232,53 232,53 232,53 232,54 232,54 233,54 233,54 233,54 233,54 233,55 233,55 234,55 234,55 234,55 234,56 234,56 234,56 235,56 235,56 235,56 235,57 235,57 235,57 236,57 236,57 236,58 236,58 236,58 236,58 237,58 237,58 237,59 237,59 237,59 237,59 238,59 238,60 238,60 238,60 238,60 238,60 239,61 239,61 239,61 239,61 239,61 239,62 240,62 240,62 240,62 240,62 240,63 240,63 241,63 241,63 241,64 241,64 241,64 241,64 242,64 242,65 242,65 242,65 242,65 242,66 243,66 243,66 243,66 243,67 243,67 243,67 244,67 244,68 244,68 244,68 244,68 244,69 245,69 245,69 245,69 245,70 245,70 245,70 246,70 246,71 246,71 246,71 246,72 246,72 247,72 247,72 247,73 247,73 247,73 247,73 248,74 248,74 248,74 248,75 248,75 248,75 249,75 249,76 249,76 249,76 249,77 249,77 250,77 250,77 250,78 250,78 250,78 250,79 251,79 251,79 251,79 251,80 251,80 251,80 252,81 252,81 252,81 252,82 252,82 252,82 253,82 253,83 253,83 253,83 253,84 253,84 254,84 254,85 254,85 254,85 254,86 254,86 255,86 255,86 255,87 255,87 255,87 255,88 256,88 256,88 256,89 256,89 256,89 256,90 256,90 257,90 257,91 257,91 257,91 257,92 257,92 258,92 258,92 258,93 258,93 258,93 258,94 259,94 259,94 259,95 259,95 259,95 259,96 260,96 260,96 260,97 260,97 260,97 260,98 261,98 261,98 261,99 261,99 261,99 261,100 262,100 262,100 262,101 262,101 262,101 262,102 263,102 263,102 263,103 263,103 263,104 263,104 264,104 264,105 264,105 264,105 264,106 264,106 265,107 265,107 265,107 265,108 265,108 265,109 266,109 266,109 266,110 266,110 266,111 266,111 267,111 267,112 267,112 267,113 267,113 267,113 268,114 268,114 268,115 268,115 268,116 268,116 269,116 269,117 269,117 269,118 269,118 269,118 270,119 270,119 270,120 270,120 270,120 270,121 271,121 271,122 271,122 271,122 271,123 271,123 272,124 272,124 272,124 272,125 272,125 272,126 273,126 273,126 273,127 273,127 273,128 273,128 274,129 274,129 274,129 274,130 274,130 274,131 275,131 275,131 275,132 275,132 275,133 275,133 276,133 276,134 276,134 276,135 276,135 276,136 277,136 277,136 277,137 277,137 277,138 277,138 278,139 278,139 278,139 278,140 278,140 278,141 279,141 279,142 279,142 279,142 279,143 279,143 280,144 280,144 280,145 280,145 280,146 280,146 281,147 281,147 281,148 281,148 281,149 281,149 282,150 282,150 282,151 282,152 282,152 282,153 283,153 283,154 283,154 283,155 283,156 283,156 284,157 284,157 284,158 284,158 284,159 284,160 285,160 285,161 285,161 285,162 285,163 285,163 286,164 286,164 286,165 286,166 286,166 286,167 287,167 287,168 287,168 287,169 287,169 287,170 288,171 288,171 288,172 288,172 288,173 288,173 289,174 289,174 289,175 289,175 289,176 289,176 290,177 290,178 290,178 290,179 290,179 290,180 291,180 291,181 291,181 291,182 291,182 291,183 292,183 292,184 292,184 292,185 292,186 292,186 293,187 293,187 293,188 293,188 293,189 293,189 294,190 294,190 294,191 294,192 294,192 294,193 295,193 295,194 295,194 295,195 295,195 295,196 296,197 296,197 296,198 296,198 296,199 296,200 297,200 297,201 297,202 297,202 297,203 297,204 298,204 298,205 298,206 298,206 298,207 298,208 299,209 299,209 299,210 299,211 299,212 299,213 300,214 300,215 300,216 300,217 300,218 300,219 301,220 301,221 301,222 301,223 301,224 301,225 302,226 302,226 302,227 302,228 302,229 302,230 303,231 303,231 303,232 303,233 303,234 303,234 304,235 304,236 304,237 304,237 304,238 304,239 305,239 305,240 305,241 305,242 305,242 305,243 306,243 306,244 306,245 306,245 306,246 306,247 307,247 307,248 307,249 307,249 307,250 307,250 308,251 308,252 308,252 308,253 308,253 308,254 309,254 309,255 309,256 309,256 309,257 309,257 310,258 310,258 310,259 310,259 310,260 310,261 311,261 311,262 311,262 311,263 311,263 311,264 312,264 312,265 312,265 312,266 312,267 312,267 313,268 313,268 313,269 313,269 313,270 313,271 314,271 314,272 314,272 314,273 314,274 314,274 315,275 315,276 315,276 315,277 315,278 315,279 316,280 316,281 316,282 316,283 316,284 316,284 317,285 317,286 317,287 317,288 317,288 317,289 318,290 318,291 318,291 318,292 318,293 318,293 319,294 319,294 319,295 319,296 319,296 319,297 320,297 320,298 320,298 320,299 320,299 320,300 321,300 321,301 321,301 321,302 321,302 321,303 322,303 322,303 322,304 322,304 322,305 322,305 323,305 323,306 323,306 323,306 323,307 323,307 324,308 324,308 324,308 324,309 324,309 324,309 325,310 325,310 325,310 325,311 325,311 325,311 326,311 326,312 326,312 326,312 326,313 326,313 327,313 327,313 327,314 327,314 327,314 327,315 328,315 328,315 328,315 328,316 328,316 328,316 329,316 329,317 329,317 329,317 329,318 329,318 330,318 330,318 330,319 330,319 330,319 330,319 331,320 331,320 331,320 331,320 331,321 331,321 332,321 332,322 332,322 332,322 332,322 332,323 333,323 333,323 333,324 333,324 333,324 333,324 334,325 334,325 334,325 334,325 334,326 334,326 335,326 335,326 335,326 335,327 335,327 335,327 336,327 336,327 336,328 336,328 336,328 336,328 337,328 337,328 337,329 337,329 337,329 337,329 338,329 338,329 338,330 338,330 338,330 338,330 339,330 339,330 339,330 339,331 339,331 339,331 339,331 340,331 340,331 340,331 340,331 340,332 340,332 341,332 341,332 341,332 341,332 341,332 341,332 342,332 342,333 342,333 342,333 342,333 342,333 343,333 343,333 343,333 343,333 343,334 343,334 344,334 344,334 344,334 344,334 344,334 344,334 345,334 345,334 345,335 345,335 345,335 345,335 346,335 346,335 346,335 346,335 346,335 346,335 347,335 347,336 347,336 347,336 347,336 347,336 348,336 348,336 348,336 348,336 348,336 348,336 349,337 349,337 349,337 349,337 349,337 349,337 350,337 350,337 350,337 350,337 350,337 350,338 351,338 351,338 351,338 351,338 351,338 351,338 352,338 352,338 352,338 352,338 352,338 352,338 353,338 353,339 353,339 353,339 353,339 353,339 354,339 354,339 354,339 354,339 354,339 354,339 355,339 355,339 355,339 355,339 355,339 355,339 356,340 356,340 356,340 356,340 356,340 356,340 357,340 357,340 357,340 357,340 357,340 357,340 358,340 358,340 358,340 358,340 358,340 358,340 359,340 359,340 359,340 359,341 359,341 359,341 360,341 360,341 360,341 360,341 360,341 360,341 361,341 361,341 361,341 361,341 361,341 361,341 362,341 362,341 362,341 362,341 362,341 362,341 363,341 363,341 363,342 363,342 363,342 363,342 364,342 364,342 364,342 364,342 364,342 364,342 365,342 365,342 365,342 365,342 365,342 365,342 366,342 366,342 366,342 366,342 366,342 366,342 367,342 367,342 367,342 367,342 367,343 367,343 368,343 368,343 368,343 368,343 368,343 368,343 369,343 369,343 369,343 369,343 369,343 369,343 370,343 370,343 370,343 370,343 370,343 370,343 371,343 371,343 371,343 371,343 371,343 371,343 372,343 372,343 372,343 372,343 372,343 372,343 373,343 373,343 373,344 373,344 373,344 373,344 374,344 374,344 374,344 374,344 374,344 374,344 375,344 375,344 375,344 375,344 375,344 375,344 376,344 376,344 376,344 376,344 376,344 376,344 377,344 377,344 377,344 377,344 377,344 377,344 378,344 378,344 378,344 378,344 378,344 378,344 379,344 379,344 379,344 379,344 379,344 379,344 380,344 380,344 380,345 380,345 380,345 380,345 381,345 381,345 381,345 381,345 381,345 381,345 382,345 382,345 382,345 382,345 382,345 382,345 383,345 383,345 383,345 383,345 383,345 383,345 384,345 384,345 384,345 384,345 384,345 384,345 385,345 385,345 385,345 385,345 385,345 385,345 386,345 386,345 386,345 386,345 386,345 386,345 387,345 387,345 387,345 387,345 387,345 387,345 388,345 388,345 388,345 388,345 388,346 388,346 389,346 389,346 389,346 389,346 389,346 389,346 390,346 390,346 390,346 390,346 390,346 390,346 391,346 391,346 391,346 391,346 391,346 391,346 392,346 392,346 392,346 392,346 392,346 392,346 393,346 393,346 393,346 393,346 393,346 393,346 394,346 394,346 394,346 394,346 394,346 394,346 395,346 395,346 395,346 395,346 395,346 395,346 396,346 396,346 396,346 396,346 396,346 396,346 397,346 397,346 397,346 397,346 397,346 397,346 398,346 398,346 398,346 398,346 398,346 398,346 399,346 399,346 399,346 399,346 399,346 399,346 400,346 400,347 400,347 400,347 400,347 400,347 401,347 401,347 401,347 401,347 401,347 401,347 402,347 402,347 402,347 402,347 402,347 402,347 403,347 403,347 403,347 403,347 403,347 403,347 404,347 404,347 404,347 404,347 404,347 404,347 405,347 405,347 405,347 405,347 405,347 405,347 406,347 406,347 406,347 406,347 406,347 406,347 407,347 407,347 407,347 407,347 407,347 407,347 408,347 408,347 408,347 408,347 408,347 408,347 409,347 409,347 409,347 409,347 409,347 409,347 410,347 410,347 410,347 410,347 410,347 410,347 411,347 411,347 411,347 411,347 411,347 411,347 412,347 412,347 412,347 412,347 412,347 412,347 413,347 413,347 413,347 413,347 413,347 413,347 414,347 414,347 414,347 414,347 414,347 414,347 415,347 415,347 415,347 415,347 415,347 415,347 416,347 416,347 416,347 416,347 416,347 416,347 417,348 417,348 417,348 417,348 417,348 417,348 418,348 418,348 418,348 418,348 418,348 418,348 419,348 419,348 419,348 419,348 419,348 419,348 420,348 420,348 420,348 420,348 420,348 420,348 421,348 421,348 421,348 421,348 421,348 421,348 422,348 422,348 422,348 422,348 422,348 422,348 423,348 423,348 423,348 423,348 423,348 423,348 423,348 424,348 424,348 424,348 424,348 424,348 424,348 425,348 425,348 425,348 425,348 425,348 425,348 426,348 426,348 426,348 426,348 426,348 426,348 427,348 427,348 427,348 427,348 427,348 427,348 428,348 428,348 428,348 428,348 428,348 428,348 429,348 429,348 429,348 429,348 429,348 429,348 430,348 430,348 430,348 430,348 430,348 430,348 431,348 431,348 431,348 431,348 431,348 431,348 432,348 432,348 432,348 432,348 432,348 432,348 433,348 433,348 433,348 433,348 433,348 433,348 434,348 434,348 434,348 434,348 434,348 434,348 435,348 435,348 435,348 435,348 435,348 435,348 436,348 436,348 436,348 436,348 436,348 436,348 437,348 437,348 437,348 437,348 437,348 437,348 438,348 438,348 438,348 438,348 438,348 438,348 439,348 439,348 439,348 439,348 439,348 439,348 440,348 440,348 440,348 440,348 440,348 440,348 441,348 441,348 441,348 441,348 441,348 441,348 442,348 442,348 442,348 442,348 442,348 442,348 443,348 443,348 443,348 443,348 443,348 443,348 444,348 444,348 444,348 444,348 444,348 444,348 445,348 445,348 445,348 445,348 445,348 445,348 446,348 446,348 446,348 446,348 446,348 446,348 447,348 447,348 447,348 447,349 447,349 447,349 448,349 448,349 448,349 448,349 448,349 448,349 449,349 449,349 449,349 449,349 449,349 449,349 450,349 450,349 450,349 450,349 450,349 450,349 451,349 451,349 451,349 451,349 451,349 451,349 452,349 452,349 452,349 452,349 452,349 452,349 453,349 453,349 453,349 453,349 453,349 453,349 454,349 454,349 454,349 454,349 454,349 454,349 455,349 455,349 455,349 455,349 455,349 455,349 456,349 456,349 456,349 456,349 456,349 456,349 457,349 457,349 457,349 457,349 457,349 457,349 458,349 458,349 458,349 458,349 458,349 458,349 459,349 459,349 459,349 459,349 459,349 459,349 460,349 460,349 460,349 460,349 460,349 460,349 461,349 461,349 461,349 461,349 461,349 461,349 462,349 462,349 462,349 462,349 462,349 462,349 463,349 463,349 463,349 463,349 463,349 463,349 464,349 464,349 464,349 464,349 464,349 464,349 465,349 465,349 465,349 465,349 465,349 465,349 466,349 466,349 466,349 466,349 466,349 466,349 467,349 467,349 467,349 467,349 467,349 467,349 468,349 468,349 468,349 468,349 468,349 468,349 469,349 469,349 469,349 469,349 469,349 469,349 470,349 470,349 470,349 470,349 470,349 470,349 471,349 471,349 471,349 471,349 471,349 471,349 472,349 472,349 472,349 472,349 472,349 472,349 473,349 473,349 473,349 473,349 473,349 473,349 474,349 474,349 474,349 474,349 474,349 474,349 475,349 475,349 475,349 475,349 475,349 475,349 476,349 476,349 476,349 476,349 476,349 476,349 477,349 477,349 477,349 477,349 477,349 477,349 478,349 478,349 478,349 478,349 478,349 478,349 479,349 479,349 479,349 479,349 479,349 479,349 480,349 480,349 480,349 480,349 480,349 480,349 481,349 481,349 481,349 481,349 481,349 481,349 482,349 482,349 482,349 482,349 482,349 482,349 483,349 483,349 483,349 483,349 483,349 483,349 484,349 484,349 484,349 484,349 484,349 484,349 485,349 485,349 485,349 485,349 485,349 485,349 486,349 486,349 486,349 486,349 486,349 486,349 487,349 487,349 487,349 487,349 487,349 487,349 488,349 488,349 488,349 488,349 488,349 488,349 489,349 489,349 489,349 489,349 489,349 489,349 490,349 490,349 490,349 490,349 490,349 490,349 491,349 491,349 491,349 491,349 491,349 491,349 492,349 492,349 492,349 492,349 492,349 492,349 493,349 493,349 493,349 493,349 493,349 493,349 494,349 494,349 494,349 494,349 494,349 494,349 495,349 495,349 495,349 495,349 495,349 495,349 496,349 496,349 496,349 496,349 496,349 496,349 497,349 497,349 497,349 497,349 497,349 497,349 498,349 498,349 498,349 498,349 498,349 498,349 499,349 499,349 499,349 499,349 499,349 499,349 500,349 500,349 500,349 500,349 500,349 500,349 501,349 501,349 501,349 501,349 501,349 501,349 502,349 502,349 502,349 502,349 502,349 502,349 503,349 503,349 503,349 503,349 503,349 503,349 504,349 504,349 504,349 504,349 504,349 504,349 505,349 505,349 505,349 505,349 505,349 505,349 506,349 506,349 506,349 506,349 506,349 506,349 506,349 507,349 507,349 507,349 507,349 507,349 507,349 508,349 508,349 508,349 508,349 508,349 508,349 509,349 509,349 509,349 509,349 509,349 509,349 510,349 510,349 510,349 510,349 510,349 510,349 511,349 511,349 511,349 511,349 511,349 511,349 512,349 512,349 512,349 512,349 512,349 512,349 513,349 513,349 513,349 513,349 513,349 513,349 514,349 514,349 514,349 514,349 514,349 514,349 515,349 515,349 515,349 515,349 515,349 515,349 516,349 516,349 516,349 516,349 516,349 516,349 517,349 517,349 517,349 517,349 517,349 517,349 518,349 518,349 518,349 518,349 518,349 518,349 519,349 519,349 519,349 519,349 519,349 519,349 520,349 520,349 520,349 520,349 520,349 520,349 521,349 521,349 521,349 521,349 521,349 521,349 522,349 522,349 522,349 522,349 522,349 522,349 523,349 523,349 523,349 523,349 523,349 523,349 524,349 524,349 524,349 524,349 524,349 524,349 525,349 525,349 525,349 525,349 525,349 525,349 526,349 526,349 526,349 526,349 526,349 526,349 527,349 527,349 527,349 527,349 527,349 527,349 528,349 528,349 528,349 528,349 528,349 528,349 529,349 529,349 529,349 529,349 529,349 529,349 530,349 530,349 530,349 530,349 530,349 530,349 531,349 531,349 531,349 531,349 531,349 531,349 532,349 532,349 532,349 532,349 532,349 532,349 533,349 533,349 533,349 533,349 533,349 533,349 534,349 534,349 534,349 534,349 534,349 534,349 535,349 535,349 535,349 535,349 535,349 535,349 536,349 536,349 536,349 536,349 536,349 536,349 537,349 537,349 537,349 537,349 537,349 537,349 538,349 538,349 538,349 538,349 538,349 538,349 539,349 539,349 539,349 539,349 539,349 539,349 540,349 540,349 540,349 540,349 540,349 540,349 541,349 541,349 541,349 541,349 541,349 541,349 542,349 542,349 542,349 542,349 542,349 542,349 543,349 543,349 543,349 543,349 543,349 543,349 544,349 544,349 544,349 544,349 544,349 544,349 545,349 545,349 545,349 545,349 545,349 545,349 546,349 546,349 546,349 546,349 546,349 546,349 547,349 547,349 547,349 547,349 547,349 547,349 548,349 548,349 548,349 548,349 548,349 548,349 549,349 549,349 549,349 549,349 549,349 549,349 550,349 550,349 550,349 550,349 550,349 550,349 551,349 551,349 551,349 551,349 551,349 551,349 552,349 552,349 552,349 552,349 552,349 552,349 553,349 553,349 553,349 553,349 553,349 553,349 554,349 554,349 554,349 554,349 554,349 554,349 555,349 555,349 555,349 555,349 555,349 555,349 556,349 556,349 556,349 556,349 556,349 556,349 557,349 557,349 557,349 557,349 557,349 557,349 558,349 558,349 558,349 558,349 558,349 558,349 559,349 559,349 559,349 559,349 559,349 559,349 560,349 560,349 560,349 560,349 560,349 560,349 561,349 561,349 561,349 561,349 561,349 561,349 562,349 562,349 562,349 562,349 562,349 562,349 563,349 563,349 563,349 563,349 563,349 563,349 564,349 564,349 564,349 564,349 564,349 564,349 565,349 565,349 565,349 565,349 565,349 565,349 566,349 566,349 566,349 566,349 566,349 566,349 567,349 567,349 567,349 567,349 567,349 567,349 568,349 568,349 568,349 568,349 568,349 568,349 569,349 569,349 569,349 569,349 569,349 569,349 570,349 570,349 570,349 570,349 570,349 570,349 571,349 571,349 571,349 571,349 571,349 571,349 572,349 572,349 572,349 572,349 572,349 572,349 573,349 573,349 573,349 573,349 573,349 573,349 574,349 574,349 574,349 574,349 574,349 574,349 575,349 575,349 575,349 575,349 575,349 575,349 576,349 576,349 576,349 576,349 576,349 576,349 577,349 577,349 577,349 577,349 577,349 577,349 578,349 578,349 578,349 578,349 578,349 578,349 579,349 579,349 579,349 579,349 579,349 579,349 580,349 580,349 580,349 580,349 580,349 580,349 581,349 581,349 581,349 581,349 581,349 581,349 582,349 582,349 582,349 582,349 582,349 582,349 583,349 583,349 583,349 583,349 583,349 583,349 584,349 584,349 584,349 584,349 584,349 584,349 585,349 585,349 585,349 585,349 585,349 585,349 586,349 586,349 586,349 586,349 586,349 586,349 587,349 587,349 587,349 587,349 587,349 587,349 588,349 588,349 588,349 588,349 588,349 588,349 589,349 "/>
<polyline fill="none" opacity="1" stroke="#2E7D32" stroke-width="1" points="90,46 91,46 92,46 93,46 94,46 95,46 96,46 97,46 98,46 99,46 100,46 101,46 102,46 "/>
<polyline fill="none" opacity="1" stroke="#2E7D32" stroke-width="1" points="108,46 109,46 110,46 111,46 112,46 113,46 114,46 115,46 116,46 117,46 118,46 119,46 120,46 "/>
<polyline fill="none" opacity="1" stroke="#2E7D32" stroke-width="1" points="126,46 127,46 128,46 129,46 130,46 131,46 132,46 133,46 134,46 135,46 136,46 137,46 138,46 "/>
<polyline fill="none" opacity="1" stroke="#2E7D32" stroke-width="1" points="144,46 145,46 146,46 147,46 148,46 149,46 150,46 151,46 152,46 153,46 154,46 155,46 156,46 "/>
<polyline fill="none" opacity="1" stroke="#2E7D32" stroke-width="1" points="162,46 163,46 164,46 165,46 166,46 167,46 168,46 169,46 170,46 171,46 172,46 173,46 174,46 "/>
<polyline fill="none" opacity="1" stroke="#2E7D32" stroke-width="1" points="180,46 181,46 182,46 183,46 184,46 185,46 186,46 187,46 188,46 189,46 190,46 191,46 192,46 "/>
<polyline fill="none" opacity="1" stroke="#2E7D32" stroke-width="1" points="196,48 197,48 198,48 199,48 199,49 200,49 201,49 201,50 202,50 202,51 203,51 204,51 204,52 "/>
<polyline fill="none" opacity="1" stroke="#2E7D32" stroke-width="1" points="208,55 208,55 209,55 210,56 211,56 211,57 212,57 212,58 213,58 213,59 214,59 215,59 215,60 215,60 "/>
<polyline fill="none" opacity="1" stroke="#2E7D32" stroke-width="1" points="219,63 219,63 220,63 220,64 221,64 221,65 222,65 222,66 223,66 223,67 224,67 224,68 225,68 225,69 "/>
<polyline fill="none" opacity="1" stroke="#2E7D32" stroke-width="1" points="228,72 228,72 229,72 229,73 230,73 230,74 231,74 231,75 232,76 232,77 233,77 233,78 234,78 234,78 "/>
<polyline fill="none" opacity="1" stroke="#2E7D32" stroke-width="1" points="237,83 237,83 237,84 238,84 238,85 239,86 239,87 240,87 240,88 240,89 241,89 241,90 242,91 "/>
<polyline fill="none" opacity="1" stroke="#2E7D32" stroke-width="1" points="244,95 244,96 245,96 245,97 245,98 246,98 246,99 246,100 247,100 247,101 248,102 248,103 249,104 "/>
<polyline fill="none" opacity="1" stroke="#2E7D32" stroke-width="1" points="251,108 251,109 252,109 252,110 252,111 253,111 253,112 253,113 254,113 254,114 254,115 255,116 255,117 "/>
<polyline fill="none" opacity="1" stroke="#2E7D32" stroke-width="1" points="257,122 257,122 257,123 258,123 258,124 258,125 259,125 259,126 259,127 259,128 260,128 260,129 260,130 261,130 "/>
<polyline fill="none" opacity="1" stroke="#2E7D32" stroke-width="1" points="262,135 263,135 263,136 263,137 264,138 264,139 264,140 265,140 265,141 265,142 266,143 266,144 266,145 "/>
<polyline fill="none" opacity="1" stroke="#2E7D32" stroke-width="1" points="268,149 268,150 269,150 269,151 269,152 270,153 270,154 270,155 271,156 271,157 271,158 272,159 "/>
<polyline fill="none" opacity="1" stroke="#2E7D32" stroke-width="1" points="273,164 273,165 274,165 274,166 274,167 274,168 275,169 275,170 275,171 275,172 276,172 276,173 276,174 276,174 "/>
<polyline fill="none" opacity="1" stroke="#2E7D32" stroke-width="1" points="278,179 278,179 278,180 278,181 278,182 279,182 279,183 279,184 279,185 280,186 280,187 280,188 281,189 "/>
<polyline fill="none" opacity="1" stroke="#2E7D32" stroke-width="1" points="282,194 282,194 282,195 283,195 283,196 283,197 283,198 284,199 284,200 284,201 285,202 285,203 285,204 "/>
<polyline fill="none" opacity="1" stroke="#2E7D32" stroke-width="1" points="287,209 287,209 287,210 287,211 287,212 287,213 288,213 288,214 288,215 288,216 288,217 289,218 289,219 289,219 "/>
<polyline fill="none" opacity="1" stroke="#2E7D32" stroke-width="1" points="290,225 290,225 290,226 290,227 290,228 290,229 291,230 291,231 291,232 291,233 291,234 292,235 292,236 "/>
<polyline fill="none" opacity="1" stroke="#2E7D32" stroke-width="1" points="293,242 293,242 293,243 294,244 294,245 294,246 294,247 295,248 295,249 295,250 295,251 296,252 296,252 "/>
<polyline fill="none" opacity="1" stroke="#2E7D32" stroke-width="1" points="297,258 297,258 298,259 298,260 298,261 298,262 299,262 299,263 299,264 299,265 300,266 300,267 300,268 300,268 "/>
<polyline fill="none" opacity="1" stroke="#2E7D32" stroke-width="1" points="302,273 302,273 302,274 302,275 303,276 303,277 303,278 303,279 304,280 304,281 304,282 304,283 304,284 "/>
<polyline fill="none" opacity="1" stroke="#2E7D32" stroke-width="1" points="305,289 305,290 306,290 306,291 306,292 306,293 306,294 307,295 307,296 307,297 307,298 308,298 308,299 "/>
<polyline fill="none" opacity="1" stroke="#2E7D32" stroke-width="1" points="309,304 309,304 310,304 310,305 310,306 311,307 311,308 311,309 312,309 312,310 312,311 313,311 313,312 313,313 "/>
<polyline fill="none" opacity="1" stroke="#2E7D32" stroke-width="1" points="316,316 316,317 316,318 317,318 317,319 318,320 318,321 319,321 319,322 319,323 320,323 320,324 320,324 "/>
<polyline fill="none" opacity="1" stroke="#2E7D32" stroke-width="1" points="323,328 324,329 324,330 325,330 326,331 327,331 327,332 328,332 328,333 329,333 329,334 330,334 330,334 "/>
<polyline fill="none" opacity="1" stroke="#2E7D32" stroke-width="1" points="334,336 335,337 336,337 336,338 337,338 338,338 338,339 339,339 340,339 341,339 341,340 342,340 343,340 343,340 "/>
<polyline fill="none" opacity="1" stroke="#2E7D32" stroke-width="1" points="348,341 348,342 349,342 350,342 351,342 352,342 352,343 353,343 354,343 355,343 356,343 357,343 357,344 357,344 "/>
<polyline fill="none" opacity="1" stroke="#2E7D32" stroke-width="1" points="363,344 364,345 365,345 366,345 367,345 368,345 369,345 370,345 371,345 372,346 373,346 374,346 374,346 "/>
<polyline fill="none" opacity="1" stroke="#2E7D32" stroke-width="1" points="380,346 381,346 382,346 383,347 384,347 385,347 386,347 387,347 388,347 389,347 390,347 391,347 392,347 "/>
<polyline fill="none" opacity="1" stroke="#2E7D32" stroke-width="1" points="398,347 398,347 399,348 400,348 401,348 402,348 403,348 404,348 405,348 406,348 407,348 408,348 409,348 409,348 "/>
<polyline fill="none" opacity="1" stroke="#2E7D32" stroke-width="1" points="415,348 416,348 417,348 418,348 419,348 420,348 421,348 422,348 423,348 424,348 425,348 426,348 427,348 427,348 "/>
<polyline fill="none" opacity="1" stroke="#2E7D32" stroke-width="1" points="433,349 433,349 434,349 435,349 436,349 437,349 438,349 439,349 440,349 441,349 442,349 443,349 444,349 445,349 "/>
<polyline fill="none" opacity="1" stroke="#2E7D32" stroke-width="1" points="451,349 451,349 452,349 453,349 454,349 455,349 456,349 457,349 458,349 459,349 460,349 461,349 462,349 463,349 "/>
<polyline fill="none" opacity="1" stroke="#2E7D32" stroke-width="1" points="469,349 469,349 470,349 471,349 472,349 473,349 474,349 475,349 476,349 477,349 478,349 479,349 480,349 481,349 "/>
<polyline fill="none" opacity="1" stroke="#2E7D32" stroke-width="1" points="487,349 487,349 488,349 489,349 490,349 491,349 492,349 493,349 494,349 495,349 496,349 497,349 498,349 499,349 "/>
<polyline fill="none" opacity="1" stroke="#2E7D32" stroke-width="1" points="505,349 505,349 506,349 507,349 508,349 509,349 510,349 511,349 512,349 513,349 514,349 515,349 516,349 517,349 "/>
<polyline fill="none" opacity="1" stroke="#2E7D32" stroke-width="1" points="523,349 523,349 524,349 525,349 526,349 527,349 528,349 529,349 530,349 531,349 532,349 533,349 534,349 535,349 "/>
<polyline fill="none" opacity="1" stroke="#2E7D32" stroke-width="1" points="541,349 541,349 542,349 543,349 544,349 545,349 546,349 547,349 548,349 549,349 550,349 551,349 552,349 553,349 "/>
<polyline fill="none" opacity="1" stroke="#2E7D32" stroke-width="1" points="559,349 559,349 560,349 561,349 562,349 563,349 564,349 565,349 566,349 567,349 568,349 569,349 570,349 571,349 "/>
<polyline fill="none" opacity="1" stroke="#2E7D32" stroke-width="1" points="577,349 577,349 578,349 579,349 580,349 581,349 582,349 583,349 584,349 585,349 586,349 587,349 588,349 589,349 "/>
<rect x="287" y="15" width="298" height="79" opacity="0.8" fill="#FFFFFF" stroke="none"/>
<text x="327" y="25" dy="0.76em" text-anchor="start" font-family="sans-serif" font-size="14.516129032258064" opacity="1" fill="#000000">
raw data
</text>
<text x="327" y="48" dy="0.76em" text-anchor="start" font-family="sans-serif" font-size="14.516129032258064" opacity="1" fill="#000000">
interpolation (iron fill factor = 100 %)
</text>
<text x="327" y="70" dy="0.76em" text-anchor="start" font-family="sans-serif" font-size="14.516129032258064" opacity="1" fill="#000000">
interpolation (iron fill factor = 95 %)
</text>
<line opacity="1" stroke="#0000FF" stroke-width="1" x1="302" y1="27" x2="312" y2="37"/>
<line opacity="1" stroke="#0000FF" stroke-width="1" x1="302" y1="37" x2="312" y2="27"/>
<polyline fill="none" opacity="1" stroke="#2E7D32" stroke-width="1" points="297,55 317,55 "/>
<polyline fill="none" opacity="1" stroke="#2E7D32" stroke-width="1" points="297,77 305,77 "/>
<polyline fill="none" opacity="1" stroke="#2E7D32" stroke-width="1" points="309,77 317,77 "/>
</svg>
